<?xml version="1.0" encoding="UTF-8"?>
<svg fill="none" viewBox="0 0 3593 1587" xmlns="http://www.w3.org/2000/svg">
<path d="m689.76 165.14c6.035 0 10.664 1.157 13.888 3.472 3.265 2.273 4.898 5.683 4.898 10.23 0 2.48-0.455 4.609-1.364 6.386-0.868 1.736-2.149 3.162-3.844 4.278-1.653 1.075-3.679 1.86-6.076 2.356s-5.105 0.744-8.122 0.744h-4.774v15.934h-6.014v-42.346c1.695-0.413 3.575-0.682 5.642-0.806 2.108-0.165 4.03-0.248 5.766-0.248zm0.496 5.27c-2.563 0-4.526 0.062-5.89 0.186v16.864h4.526c2.067 0 3.927-0.124 5.58-0.372 1.653-0.289 3.038-0.744 4.154-1.364 1.157-0.661 2.046-1.55 2.666-2.666s0.93-2.542 0.93-4.278c0-1.653-0.331-3.017-0.992-4.092-0.62-1.075-1.488-1.922-2.604-2.542-1.075-0.661-2.335-1.116-3.782-1.364s-2.976-0.372-4.588-0.372zm61.095 16.616c0 3.72-0.579 6.965-1.736 9.734-1.158 2.728-2.79 5.001-4.898 6.82-2.108 1.777-4.63 3.121-7.564 4.03-2.935 0.868-6.159 1.302-9.672 1.302-1.736 0-3.658-0.083-5.766-0.248-2.067-0.124-3.948-0.393-5.642-0.806v-41.664c1.694-0.413 3.575-0.682 5.642-0.806 2.108-0.165 4.03-0.248 5.766-0.248 3.513 0 6.737 0.455 9.672 1.364 2.934 0.868 5.456 2.211 7.564 4.03 2.108 1.777 3.74 4.051 4.898 6.82 1.157 2.728 1.736 5.952 1.736 9.672zm-23.374 16.616c5.704 0 9.961-1.447 12.772-4.34 2.81-2.935 4.216-7.027 4.216-12.276s-1.406-9.321-4.216-12.214c-2.811-2.935-7.068-4.402-12.772-4.402-1.695 0-3.018 0.021-3.968 0.062-0.91 0.041-1.55 0.083-1.922 0.124v32.86c0.372 0.041 1.012 0.083 1.922 0.124 0.95 0.041 2.273 0.062 3.968 0.062z" fill="#fff"/>
<path d="m1857.8 213.54h-685.93c-5.53 0-10 4.477-10 10v235.9c0 5.523 4.47 10 10 10h685.93c5.52 0 10-4.477 10-10v-235.9c0-5.523-4.48-10-10-10z" fill="#E4B612"/>
<path d="m1249.8 317.04v5.124h-13.3v37.149h-5.92v-37.149h-13.29v-5.124h32.51zm11.55 42.273h-5.67v-31.72h5.67v31.72zm-2.86-37.454c-1.02 0-1.89-0.325-2.63-0.976-0.69-0.691-1.03-1.606-1.03-2.745s0.34-2.033 1.03-2.684c0.74-0.691 1.61-1.037 2.63-1.037 1.01 0 1.87 0.346 2.56 1.037 0.73 0.651 1.1 1.545 1.1 2.684s-0.37 2.054-1.1 2.745c-0.69 0.651-1.55 0.976-2.56 0.976zm31.16 38.369c-2.96 0-5.67-0.488-8.11-1.464s-4.53-2.399-6.28-4.27-3.11-4.168-4.09-6.893c-0.93-2.765-1.4-5.917-1.4-9.455s0.53-6.669 1.58-9.394c1.1-2.765 2.57-5.083 4.4-6.954s3.96-3.294 6.4-4.27 5.04-1.464 7.81-1.464c1.75 0 3.31 0.122 4.7 0.366 1.42 0.244 2.64 0.529 3.66 0.854 1.05 0.325 1.91 0.651 2.56 0.976s1.1 0.569 1.34 0.732l-1.71 4.88c-0.36-0.244-0.89-0.508-1.58-0.793-0.7-0.285-1.49-0.569-2.38-0.854-0.86-0.285-1.81-0.508-2.87-0.671-1.02-0.203-2.05-0.305-3.11-0.305-2.24 0-4.25 0.386-6.04 1.159s-3.31 1.891-4.58 3.355c-1.26 1.464-2.23 3.253-2.92 5.368-0.65 2.074-0.98 4.412-0.98 7.015 0 2.521 0.29 4.819 0.85 6.893 0.61 2.074 1.51 3.863 2.69 5.368 1.18 1.464 2.64 2.603 4.39 3.416 1.79 0.813 3.86 1.22 6.22 1.22 2.73 0 4.98-0.285 6.77-0.854s3.14-1.078 4.03-1.525l1.52 4.88c-0.28 0.203-0.79 0.468-1.52 0.793-0.73 0.285-1.65 0.569-2.75 0.854-1.09 0.285-2.37 0.529-3.84 0.732-1.46 0.203-3.05 0.305-4.76 0.305zm54.36-22.082c0 3.66-0.57 6.852-1.71 9.577-1.13 2.684-2.74 4.921-4.82 6.71-2.07 1.749-4.55 3.07-7.44 3.965-2.88 0.854-6.06 1.281-9.51 1.281-1.71 0-3.6-0.081-5.68-0.244-2.03-0.122-3.88-0.386-5.55-0.793v-40.992c1.67-0.407 3.52-0.671 5.55-0.793 2.08-0.163 3.97-0.244 5.68-0.244 3.45 0 6.63 0.447 9.51 1.342 2.89 0.854 5.37 2.176 7.44 3.965 2.08 1.749 3.69 3.985 4.82 6.71 1.14 2.684 1.71 5.856 1.71 9.516zm-23 16.348c5.62 0 9.81-1.423 12.57-4.27 2.77-2.887 4.15-6.913 4.15-12.078s-1.38-9.17-4.15-12.017c-2.76-2.887-6.95-4.331-12.57-4.331-1.66 0-2.96 0.02-3.9 0.061-0.89 0.041-1.52 0.081-1.89 0.122v32.33c0.37 0.041 1 0.081 1.89 0.122 0.94 0.041 2.24 0.061 3.9 0.061zm49.96 5.734c-2.97 0-5.68-0.488-8.12-1.464s-4.53-2.399-6.28-4.27-3.11-4.168-4.09-6.893c-0.93-2.765-1.4-5.917-1.4-9.455s0.53-6.669 1.59-9.394c1.1-2.765 2.56-5.083 4.39-6.954s3.96-3.294 6.4-4.27 5.05-1.464 7.81-1.464c1.75 0 3.32 0.122 4.7 0.366 1.42 0.244 2.64 0.529 3.66 0.854 1.06 0.325 1.91 0.651 2.56 0.976s1.1 0.569 1.34 0.732l-1.7 4.88c-0.37-0.244-0.9-0.508-1.59-0.793s-1.49-0.569-2.38-0.854c-0.85-0.285-1.81-0.508-2.87-0.671-1.01-0.203-2.05-0.305-3.11-0.305-2.23 0-4.25 0.386-6.04 1.159s-3.31 1.891-4.57 3.355-2.24 3.253-2.93 5.368c-0.65 2.074-0.98 4.412-0.98 7.015 0 2.521 0.29 4.819 0.86 6.893 0.61 2.074 1.5 3.863 2.68 5.368 1.18 1.464 2.65 2.603 4.39 3.416 1.79 0.813 3.87 1.22 6.23 1.22 2.72 0 4.98-0.285 6.77-0.854s3.13-1.078 4.02-1.525l1.53 4.88c-0.29 0.203-0.79 0.468-1.53 0.793-0.73 0.285-1.64 0.569-2.74 0.854s-2.38 0.529-3.84 0.732c-1.47 0.203-3.05 0.305-4.76 0.305z" fill="#fff"/>
<path d="m1767.2 261.19h-282.37v95.3h282.37v-95.3z" fill="#fff"/>
<path d="m1765.2 263.19h-278.37v91.3h278.37v-91.3z" stroke="#505050" stroke-width="4"/>
<path d="m1797.2 292.96h-282.37v95.3h282.37v-95.3z" fill="#fff"/>
<path d="m1795.2 294.96h-278.37v91.3h278.37v-91.3z" stroke="#505050" stroke-width="4"/>
<path d="m1827.2 330.02h-282.37v95.3h282.37v-95.3z" fill="#fff"/>
<path d="m1825.2 332.02h-278.37v91.3h278.37v-91.3z" stroke="#505050" stroke-width="4"/>
<path d="m1633.1 357.33v4.284h-11.12v31.059h-4.95v-31.059h-11.11v-4.284h27.18zm11.6 31.926c1.12 0 2.11-0.017 2.96-0.051 0.88-0.068 1.61-0.17 2.19-0.306v-7.905c-0.34-0.17-0.9-0.306-1.68-0.408-0.75-0.136-1.67-0.204-2.75-0.204-0.72 0-1.48 0.051-2.3 0.153-0.78 0.102-1.51 0.323-2.19 0.663-0.65 0.306-1.19 0.748-1.63 1.326-0.45 0.544-0.67 1.275-0.67 2.193 0 1.7 0.55 2.89 1.63 3.57 1.09 0.646 2.57 0.969 4.44 0.969zm-0.41-23.766c1.91 0 3.51 0.255 4.8 0.765 1.32 0.476 2.38 1.173 3.16 2.091 0.82 0.884 1.39 1.955 1.73 3.213 0.34 1.224 0.51 2.584 0.51 4.08v16.575c-0.4 0.068-0.98 0.17-1.73 0.306-0.71 0.102-1.53 0.204-2.45 0.306s-1.92 0.187-3.01 0.255c-1.05 0.102-2.11 0.153-3.16 0.153-1.5 0-2.87-0.153-4.13-0.459s-2.35-0.782-3.26-1.428c-0.92-0.68-1.64-1.564-2.15-2.652s-0.76-2.397-0.76-3.927c0-1.462 0.29-2.72 0.87-3.774 0.61-1.054 1.42-1.904 2.44-2.55s2.21-1.122 3.57-1.428 2.79-0.459 4.29-0.459c0.47 0 0.97 0.034 1.48 0.102 0.51 0.034 0.98 0.102 1.42 0.204 0.48 0.068 0.89 0.136 1.23 0.204s0.58 0.119 0.71 0.153v-1.326c0-0.782-0.08-1.547-0.25-2.295-0.17-0.782-0.48-1.462-0.92-2.04-0.44-0.612-1.05-1.088-1.84-1.428-0.74-0.374-1.73-0.561-2.95-0.561-1.57 0-2.95 0.119-4.14 0.357-1.15 0.204-2.02 0.425-2.6 0.663l-0.56-3.927c0.61-0.272 1.63-0.527 3.06-0.765 1.43-0.272 2.98-0.408 4.64-0.408zm22.82 1.836c0.58-0.374 1.45-0.765 2.61-1.173 1.19-0.408 2.55-0.612 4.08-0.612 1.9 0 3.58 0.34 5.04 1.02 1.5 0.68 2.76 1.632 3.78 2.856s1.78 2.686 2.29 4.386c0.55 1.7 0.82 3.57 0.82 5.61 0 2.142-0.32 4.08-0.97 5.814-0.61 1.7-1.5 3.145-2.65 4.335-1.16 1.19-2.55 2.108-4.18 2.754-1.64 0.646-3.47 0.969-5.51 0.969-2.21 0-4.17-0.153-5.87-0.459s-3.09-0.612-4.18-0.918v-37.995l4.74-0.816v14.229zm0 21.216c0.48 0.136 1.14 0.272 1.99 0.408 0.89 0.102 1.98 0.153 3.27 0.153 2.55 0 4.59-0.833 6.12-2.499 1.53-1.7 2.29-4.097 2.29-7.191 0-1.36-0.13-2.635-0.41-3.825-0.27-1.19-0.71-2.21-1.32-3.06-0.61-0.884-1.41-1.564-2.4-2.04-0.95-0.51-2.11-0.765-3.47-0.765-1.29 0-2.48 0.221-3.57 0.663-1.08 0.442-1.92 0.901-2.5 1.377v16.779zm33.25 4.641c-2.92-0.068-5-0.697-6.22-1.887-1.23-1.19-1.84-3.043-1.84-5.559v-31.824l4.74-0.816v31.875c0 0.782 0.07 1.428 0.21 1.938 0.13 0.51 0.36 0.918 0.66 1.224 0.31 0.306 0.72 0.544 1.23 0.714 0.51 0.136 1.13 0.255 1.88 0.357l-0.66 3.978zm4.51-13.719c0-2.346 0.34-4.386 1.02-6.12 0.68-1.768 1.58-3.23 2.7-4.386s2.42-2.023 3.88-2.601 2.96-0.867 4.49-0.867c3.57 0 6.3 1.122 8.21 3.366 1.9 2.21 2.85 5.593 2.85 10.149v0.816c0 0.306-0.01 0.595-0.05 0.867h-18.15c0.2 2.754 1 4.845 2.39 6.273 1.4 1.428 3.57 2.142 6.53 2.142 1.67 0 3.06-0.136 4.18-0.408 1.16-0.306 2.03-0.595 2.6-0.867l0.67 3.978c-0.58 0.306-1.6 0.629-3.06 0.969-1.43 0.34-3.06 0.51-4.9 0.51-2.31 0-4.32-0.34-6.02-1.02-1.66-0.714-3.04-1.683-4.13-2.907s-1.9-2.669-2.45-4.335c-0.51-1.7-0.76-3.553-0.76-5.559zm18.21-2.601c0.03-2.142-0.51-3.893-1.64-5.253-1.08-1.394-2.6-2.091-4.53-2.091-1.09 0-2.06 0.221-2.91 0.663-0.82 0.408-1.51 0.952-2.09 1.632s-1.04 1.462-1.38 2.346c-0.31 0.884-0.51 1.785-0.61 2.703h13.16z" fill="#505050"/>
<path d="m1857.8 564.74h-685.93c-5.53 0-10 4.477-10 10v235.9c0 5.523 4.47 10 10 10h685.93c5.52 0 10-4.477 10-10v-235.9c0-5.523-4.48-10-10-10z" fill="#E4B612"/>
<path d="m1249.8 668.24v5.124h-13.3v37.149h-5.92v-37.149h-13.29v-5.124h32.51zm11.55 42.273h-5.67v-31.72h5.67v31.72zm-2.86-37.454c-1.02 0-1.89-0.325-2.63-0.976-0.69-0.691-1.03-1.606-1.03-2.745s0.34-2.033 1.03-2.684c0.74-0.691 1.61-1.037 2.63-1.037 1.01 0 1.87 0.346 2.56 1.037 0.73 0.651 1.1 1.545 1.1 2.684s-0.37 2.054-1.1 2.745c-0.69 0.651-1.55 0.976-2.56 0.976zm31.16 38.369c-2.96 0-5.67-0.488-8.11-1.464s-4.53-2.399-6.28-4.27-3.11-4.168-4.09-6.893c-0.93-2.765-1.4-5.917-1.4-9.455s0.53-6.669 1.58-9.394c1.1-2.765 2.57-5.083 4.4-6.954s3.96-3.294 6.4-4.27 5.04-1.464 7.81-1.464c1.75 0 3.31 0.122 4.7 0.366 1.42 0.244 2.64 0.529 3.66 0.854 1.05 0.325 1.91 0.651 2.56 0.976s1.1 0.569 1.34 0.732l-1.71 4.88c-0.36-0.244-0.89-0.508-1.58-0.793-0.7-0.285-1.49-0.569-2.38-0.854-0.86-0.285-1.81-0.508-2.87-0.671-1.02-0.203-2.05-0.305-3.11-0.305-2.24 0-4.25 0.386-6.04 1.159s-3.31 1.891-4.58 3.355c-1.26 1.464-2.23 3.253-2.92 5.368-0.65 2.074-0.98 4.412-0.98 7.015 0 2.521 0.29 4.819 0.85 6.893 0.61 2.074 1.51 3.863 2.69 5.368 1.18 1.464 2.64 2.603 4.39 3.416 1.79 0.813 3.86 1.22 6.22 1.22 2.73 0 4.98-0.285 6.77-0.854s3.14-1.078 4.03-1.525l1.52 4.88c-0.28 0.203-0.79 0.468-1.52 0.793-0.73 0.285-1.65 0.569-2.75 0.854-1.09 0.285-2.37 0.529-3.84 0.732-1.46 0.203-3.05 0.305-4.76 0.305zm54.36-22.082c0 3.66-0.57 6.852-1.71 9.577-1.13 2.684-2.74 4.921-4.82 6.71-2.07 1.749-4.55 3.07-7.44 3.965-2.88 0.854-6.06 1.281-9.51 1.281-1.71 0-3.6-0.081-5.68-0.244-2.03-0.122-3.88-0.386-5.55-0.793v-40.992c1.67-0.407 3.52-0.671 5.55-0.793 2.08-0.163 3.97-0.244 5.68-0.244 3.45 0 6.63 0.447 9.51 1.342 2.89 0.854 5.37 2.176 7.44 3.965 2.08 1.749 3.69 3.985 4.82 6.71 1.14 2.684 1.71 5.856 1.71 9.516zm-23 16.348c5.62 0 9.81-1.423 12.57-4.27 2.77-2.887 4.15-6.913 4.15-12.078s-1.38-9.17-4.15-12.017c-2.76-2.887-6.95-4.331-12.57-4.331-1.66 0-2.96 0.02-3.9 0.061-0.89 0.041-1.52 0.081-1.89 0.122v32.33c0.37 0.041 1 0.081 1.89 0.122 0.94 0.041 2.24 0.061 3.9 0.061zm49.96 5.734c-2.97 0-5.68-0.488-8.12-1.464s-4.53-2.399-6.28-4.27-3.11-4.168-4.09-6.893c-0.93-2.765-1.4-5.917-1.4-9.455s0.53-6.669 1.59-9.394c1.1-2.765 2.56-5.083 4.39-6.954s3.96-3.294 6.4-4.27 5.05-1.464 7.81-1.464c1.75 0 3.32 0.122 4.7 0.366 1.42 0.244 2.64 0.529 3.66 0.854 1.06 0.325 1.91 0.651 2.56 0.976s1.1 0.569 1.34 0.732l-1.7 4.88c-0.37-0.244-0.9-0.508-1.59-0.793s-1.49-0.569-2.38-0.854c-0.85-0.285-1.81-0.508-2.87-0.671-1.01-0.203-2.05-0.305-3.11-0.305-2.23 0-4.25 0.386-6.04 1.159s-3.31 1.891-4.57 3.355-2.24 3.253-2.93 5.368c-0.65 2.074-0.98 4.412-0.98 7.015 0 2.521 0.29 4.819 0.86 6.893 0.61 2.074 1.5 3.863 2.68 5.368 1.18 1.464 2.65 2.603 4.39 3.416 1.79 0.813 3.87 1.22 6.23 1.22 2.72 0 4.98-0.285 6.77-0.854s3.13-1.078 4.02-1.525l1.53 4.88c-0.29 0.203-0.79 0.468-1.53 0.793-0.73 0.285-1.64 0.569-2.74 0.854s-2.38 0.529-3.84 0.732c-1.47 0.203-3.05 0.305-4.76 0.305z" fill="#fff"/>
<path d="m1767.2 612.39h-282.37v95.3h282.37v-95.3z" fill="#fff"/>
<path d="m1765.2 614.39h-278.37v91.3h278.37v-91.3z" stroke="#505050" stroke-width="4"/>
<path d="m1797.2 644.16h-282.37v95.3h282.37v-95.3z" fill="#fff"/>
<path d="m1795.2 646.16h-278.37v91.3h278.37v-91.3z" stroke="#505050" stroke-width="4"/>
<path d="m1827.2 681.22h-282.37v95.3h282.37v-95.3z" fill="#fff"/>
<path d="m1825.2 683.22h-278.37v91.3h278.37v-91.3z" stroke="#505050" stroke-width="4"/>
<path d="m1633.1 708.53v4.284h-11.12v31.059h-4.95v-31.059h-11.11v-4.284h27.18zm11.6 31.926c1.12 0 2.11-0.017 2.96-0.051 0.88-0.068 1.61-0.17 2.19-0.306v-7.905c-0.34-0.17-0.9-0.306-1.68-0.408-0.75-0.136-1.67-0.204-2.75-0.204-0.72 0-1.48 0.051-2.3 0.153-0.78 0.102-1.51 0.323-2.19 0.663-0.65 0.306-1.19 0.748-1.63 1.326-0.45 0.544-0.67 1.275-0.67 2.193 0 1.7 0.55 2.89 1.63 3.57 1.09 0.646 2.57 0.969 4.44 0.969zm-0.41-23.766c1.91 0 3.51 0.255 4.8 0.765 1.32 0.476 2.38 1.173 3.16 2.091 0.82 0.884 1.39 1.955 1.73 3.213 0.34 1.224 0.51 2.584 0.51 4.08v16.575c-0.4 0.068-0.98 0.17-1.73 0.306-0.71 0.102-1.53 0.204-2.45 0.306s-1.92 0.187-3.01 0.255c-1.05 0.102-2.11 0.153-3.16 0.153-1.5 0-2.87-0.153-4.13-0.459s-2.35-0.782-3.26-1.428c-0.92-0.68-1.64-1.564-2.15-2.652s-0.76-2.397-0.76-3.927c0-1.462 0.29-2.72 0.87-3.774 0.61-1.054 1.42-1.904 2.44-2.55s2.21-1.122 3.57-1.428 2.79-0.459 4.29-0.459c0.47 0 0.97 0.034 1.48 0.102 0.51 0.034 0.98 0.102 1.42 0.204 0.48 0.068 0.89 0.136 1.23 0.204s0.58 0.119 0.71 0.153v-1.326c0-0.782-0.08-1.547-0.25-2.295-0.17-0.782-0.48-1.462-0.92-2.04-0.44-0.612-1.05-1.088-1.84-1.428-0.74-0.374-1.73-0.561-2.95-0.561-1.57 0-2.95 0.119-4.14 0.357-1.15 0.204-2.02 0.425-2.6 0.663l-0.56-3.927c0.61-0.272 1.63-0.527 3.06-0.765 1.43-0.272 2.98-0.408 4.64-0.408zm22.82 1.836c0.58-0.374 1.45-0.765 2.61-1.173 1.19-0.408 2.55-0.612 4.08-0.612 1.9 0 3.58 0.34 5.04 1.02 1.5 0.68 2.76 1.632 3.78 2.856s1.78 2.686 2.29 4.386c0.55 1.7 0.82 3.57 0.82 5.61 0 2.142-0.32 4.08-0.97 5.814-0.61 1.7-1.5 3.145-2.65 4.335-1.16 1.19-2.55 2.108-4.18 2.754-1.64 0.646-3.47 0.969-5.51 0.969-2.21 0-4.17-0.153-5.87-0.459s-3.09-0.612-4.18-0.918v-37.995l4.74-0.816v14.229zm0 21.216c0.48 0.136 1.14 0.272 1.99 0.408 0.89 0.102 1.98 0.153 3.27 0.153 2.55 0 4.59-0.833 6.12-2.499 1.53-1.7 2.29-4.097 2.29-7.191 0-1.36-0.13-2.635-0.41-3.825-0.27-1.19-0.71-2.21-1.32-3.06-0.61-0.884-1.41-1.564-2.4-2.04-0.95-0.51-2.11-0.765-3.47-0.765-1.29 0-2.48 0.221-3.57 0.663-1.08 0.442-1.92 0.901-2.5 1.377v16.779zm33.25 4.641c-2.92-0.068-5-0.697-6.22-1.887-1.23-1.19-1.84-3.043-1.84-5.559v-31.824l4.74-0.816v31.875c0 0.782 0.07 1.428 0.21 1.938 0.13 0.51 0.36 0.918 0.66 1.224 0.31 0.306 0.72 0.544 1.23 0.714 0.51 0.136 1.13 0.255 1.88 0.357l-0.66 3.978zm4.51-13.719c0-2.346 0.34-4.386 1.02-6.12 0.68-1.768 1.58-3.23 2.7-4.386s2.42-2.023 3.88-2.601 2.96-0.867 4.49-0.867c3.57 0 6.3 1.122 8.21 3.366 1.9 2.21 2.85 5.593 2.85 10.149v0.816c0 0.306-0.01 0.595-0.05 0.867h-18.15c0.2 2.754 1 4.845 2.39 6.273 1.4 1.428 3.57 2.142 6.53 2.142 1.67 0 3.06-0.136 4.18-0.408 1.16-0.306 2.03-0.595 2.6-0.867l0.67 3.978c-0.58 0.306-1.6 0.629-3.06 0.969-1.43 0.34-3.06 0.51-4.9 0.51-2.31 0-4.32-0.34-6.02-1.02-1.66-0.714-3.04-1.683-4.13-2.907s-1.9-2.669-2.45-4.335c-0.51-1.7-0.76-3.553-0.76-5.559zm18.21-2.601c0.03-2.142-0.51-3.893-1.64-5.253-1.08-1.394-2.6-2.091-4.53-2.091-1.09 0-2.06 0.221-2.91 0.663-0.82 0.408-1.51 0.952-2.09 1.632s-1.04 1.462-1.38 2.346c-0.31 0.884-0.51 1.785-0.61 2.703h13.16z" fill="#505050"/>
<path d="m1857.8 915.94h-685.93c-5.53 0-10 4.477-10 10v235.9c0 5.52 4.47 10 10 10h685.93c5.52 0 10-4.48 10-10v-235.9c0-5.523-4.48-10-10-10z" fill="#E4B612"/>
<path d="m1249.8 1019.4v5.12h-13.3v37.15h-5.92v-37.15h-13.29v-5.12h32.51zm11.55 42.27h-5.67v-31.72h5.67v31.72zm-2.86-37.45c-1.02 0-1.89-0.33-2.63-0.98-0.69-0.69-1.03-1.6-1.03-2.74s0.34-2.03 1.03-2.69c0.74-0.69 1.61-1.03 2.63-1.03 1.01 0 1.87 0.34 2.56 1.03 0.73 0.66 1.1 1.55 1.1 2.69s-0.37 2.05-1.1 2.74c-0.69 0.65-1.55 0.98-2.56 0.98zm31.16 38.37c-2.96 0-5.67-0.49-8.11-1.47-2.44-0.97-4.53-2.39-6.28-4.27-1.75-1.87-3.11-4.16-4.09-6.89-0.93-2.76-1.4-5.92-1.4-9.45 0-3.54 0.53-6.67 1.58-9.4 1.1-2.76 2.57-5.08 4.4-6.95s3.96-3.3 6.4-4.27c2.44-0.98 5.04-1.47 7.81-1.47 1.75 0 3.31 0.13 4.7 0.37 1.42 0.24 2.64 0.53 3.66 0.85 1.05 0.33 1.91 0.66 2.56 0.98 0.65 0.33 1.1 0.57 1.34 0.73l-1.71 4.88c-0.36-0.24-0.89-0.51-1.58-0.79-0.7-0.28-1.49-0.57-2.38-0.85-0.86-0.29-1.81-0.51-2.87-0.68-1.02-0.2-2.05-0.3-3.11-0.3-2.24 0-4.25 0.39-6.04 1.16s-3.31 1.89-4.58 3.35c-1.26 1.47-2.23 3.26-2.92 5.37-0.65 2.08-0.98 4.41-0.98 7.02 0 2.52 0.29 4.82 0.85 6.89 0.61 2.07 1.51 3.86 2.69 5.37 1.18 1.46 2.64 2.6 4.39 3.41 1.79 0.82 3.86 1.22 6.22 1.22 2.73 0 4.98-0.28 6.77-0.85s3.14-1.08 4.03-1.53l1.52 4.88c-0.28 0.21-0.79 0.47-1.52 0.8-0.73 0.28-1.65 0.57-2.75 0.85-1.09 0.29-2.37 0.53-3.84 0.73-1.46 0.21-3.05 0.31-4.76 0.31zm54.36-22.08c0 3.66-0.57 6.85-1.71 9.57-1.13 2.69-2.74 4.92-4.82 6.71-2.07 1.75-4.55 3.07-7.44 3.97-2.88 0.85-6.06 1.28-9.51 1.28-1.71 0-3.6-0.08-5.68-0.24-2.03-0.13-3.88-0.39-5.55-0.8v-40.99c1.67-0.41 3.52-0.67 5.55-0.79 2.08-0.16 3.97-0.25 5.68-0.25 3.45 0 6.63 0.45 9.51 1.35 2.89 0.85 5.37 2.17 7.44 3.96 2.08 1.75 3.69 3.99 4.82 6.71 1.14 2.68 1.71 5.86 1.71 9.52zm-23 16.34c5.62 0 9.81-1.42 12.57-4.27 2.77-2.88 4.15-6.91 4.15-12.07 0-5.17-1.38-9.17-4.15-12.02-2.76-2.89-6.95-4.33-12.57-4.33-1.66 0-2.96 0.02-3.9 0.06-0.89 0.04-1.52 0.08-1.89 0.12v32.33c0.37 0.04 1 0.08 1.89 0.12 0.94 0.04 2.24 0.06 3.9 0.06zm49.96 5.74c-2.97 0-5.68-0.49-8.12-1.47-2.44-0.97-4.53-2.39-6.28-4.27-1.75-1.87-3.11-4.16-4.09-6.89-0.93-2.76-1.4-5.92-1.4-9.45 0-3.54 0.53-6.67 1.59-9.4 1.1-2.76 2.56-5.08 4.39-6.95s3.96-3.3 6.4-4.27c2.44-0.98 5.05-1.47 7.81-1.47 1.75 0 3.32 0.13 4.7 0.37 1.42 0.24 2.64 0.53 3.66 0.85 1.06 0.33 1.91 0.66 2.56 0.98 0.65 0.33 1.1 0.57 1.34 0.73l-1.7 4.88c-0.37-0.24-0.9-0.51-1.59-0.79s-1.49-0.57-2.38-0.85c-0.85-0.29-1.81-0.51-2.87-0.68-1.01-0.2-2.05-0.3-3.11-0.3-2.23 0-4.25 0.39-6.04 1.16s-3.31 1.89-4.57 3.35c-1.26 1.47-2.24 3.26-2.93 5.37-0.65 2.08-0.98 4.41-0.98 7.02 0 2.52 0.29 4.82 0.86 6.89 0.61 2.07 1.5 3.86 2.68 5.37 1.18 1.46 2.65 2.6 4.39 3.41 1.79 0.82 3.87 1.22 6.23 1.22 2.72 0 4.98-0.28 6.77-0.85s3.13-1.08 4.02-1.53l1.53 4.88c-0.29 0.21-0.79 0.47-1.53 0.8-0.73 0.28-1.64 0.57-2.74 0.85-1.1 0.29-2.38 0.53-3.84 0.73-1.47 0.21-3.05 0.31-4.76 0.31z" fill="#fff"/>
<path d="m1767.2 963.59h-282.37v95.297h282.37v-95.297z" fill="#fff"/>
<path d="m1765.2 965.59h-278.37v91.297h278.37v-91.297z" stroke="#505050" stroke-width="4"/>
<path d="m1797.2 995.36h-282.37v95.3h282.37v-95.3z" fill="#fff"/>
<path d="m1795.2 997.36h-278.37v91.3h278.37v-91.3z" stroke="#505050" stroke-width="4"/>
<path d="m1827.2 1032.4h-282.37v95.3h282.37v-95.3z" fill="#fff"/>
<path d="m1825.2 1034.4h-278.37v91.3h278.37v-91.3z" stroke="#505050" stroke-width="4"/>
<path d="m1633.1 1059.7v4.28h-11.12v31.06h-4.95v-31.06h-11.11v-4.28h27.18zm11.6 31.92c1.12 0 2.11-0.02 2.96-0.05 0.88-0.07 1.61-0.17 2.19-0.31v-7.9c-0.34-0.17-0.9-0.31-1.68-0.41-0.75-0.13-1.67-0.2-2.75-0.2-0.72 0-1.48 0.05-2.3 0.15-0.78 0.1-1.51 0.32-2.19 0.66-0.65 0.31-1.19 0.75-1.63 1.33-0.45 0.54-0.67 1.27-0.67 2.19 0 1.7 0.55 2.89 1.63 3.57 1.09 0.65 2.57 0.97 4.44 0.97zm-0.41-23.76c1.91 0 3.51 0.25 4.8 0.76 1.32 0.48 2.38 1.17 3.16 2.09 0.82 0.89 1.39 1.96 1.73 3.21 0.34 1.23 0.51 2.59 0.51 4.08v16.58c-0.4 0.07-0.98 0.17-1.73 0.31-0.71 0.1-1.53 0.2-2.45 0.3s-1.92 0.19-3.01 0.26c-1.05 0.1-2.11 0.15-3.16 0.15-1.5 0-2.87-0.15-4.13-0.46s-2.35-0.78-3.26-1.43c-0.92-0.68-1.64-1.56-2.15-2.65s-0.76-2.4-0.76-3.93c0-1.46 0.29-2.72 0.87-3.77 0.61-1.05 1.42-1.9 2.44-2.55s2.21-1.12 3.57-1.43c1.36-0.3 2.79-0.46 4.29-0.46 0.47 0 0.97 0.04 1.48 0.1 0.51 0.04 0.98 0.11 1.42 0.21 0.48 0.07 0.89 0.13 1.23 0.2s0.58 0.12 0.71 0.16v-1.33c0-0.78-0.08-1.55-0.25-2.3-0.17-0.78-0.48-1.46-0.92-2.04-0.44-0.61-1.05-1.08-1.84-1.42-0.74-0.38-1.73-0.56-2.95-0.56-1.57 0-2.95 0.11-4.14 0.35-1.15 0.21-2.02 0.43-2.6 0.67l-0.56-3.93c0.61-0.27 1.63-0.53 3.06-0.77 1.43-0.27 2.98-0.4 4.64-0.4zm22.82 1.83c0.58-0.37 1.45-0.76 2.61-1.17 1.19-0.41 2.55-0.61 4.08-0.61 1.9 0 3.58 0.34 5.04 1.02 1.5 0.68 2.76 1.63 3.78 2.85 1.02 1.23 1.78 2.69 2.29 4.39 0.55 1.7 0.82 3.57 0.82 5.61 0 2.14-0.32 4.08-0.97 5.81-0.61 1.7-1.5 3.15-2.65 4.34-1.16 1.19-2.55 2.11-4.18 2.75-1.64 0.65-3.47 0.97-5.51 0.97-2.21 0-4.17-0.15-5.87-0.46-1.7-0.3-3.09-0.61-4.18-0.92v-37.99l4.74-0.82v14.23zm0 21.22c0.48 0.13 1.14 0.27 1.99 0.41 0.89 0.1 1.98 0.15 3.27 0.15 2.55 0 4.59-0.83 6.12-2.5 1.53-1.7 2.29-4.1 2.29-7.19 0-1.36-0.13-2.64-0.41-3.83-0.27-1.19-0.71-2.21-1.32-3.06-0.61-0.88-1.41-1.56-2.4-2.04-0.95-0.51-2.11-0.76-3.47-0.76-1.29 0-2.48 0.22-3.57 0.66-1.08 0.44-1.92 0.9-2.5 1.38v16.78zm33.25 4.64c-2.92-0.07-5-0.7-6.22-1.89-1.23-1.19-1.84-3.04-1.84-5.56v-31.82l4.74-0.82v31.88c0 0.78 0.07 1.43 0.21 1.94 0.13 0.51 0.36 0.91 0.66 1.22 0.31 0.31 0.72 0.54 1.23 0.71 0.51 0.14 1.13 0.26 1.88 0.36l-0.66 3.98zm4.51-13.72c0-2.35 0.34-4.39 1.02-6.12 0.68-1.77 1.58-3.23 2.7-4.39 1.12-1.15 2.42-2.02 3.88-2.6s2.96-0.86 4.49-0.86c3.57 0 6.3 1.12 8.21 3.36 1.9 2.21 2.85 5.59 2.85 10.15v0.82c0 0.3-0.01 0.59-0.05 0.86h-18.15c0.2 2.76 1 4.85 2.39 6.28 1.4 1.42 3.57 2.14 6.53 2.14 1.67 0 3.06-0.14 4.18-0.41 1.16-0.31 2.03-0.59 2.6-0.87l0.67 3.98c-0.58 0.31-1.6 0.63-3.06 0.97-1.43 0.34-3.06 0.51-4.9 0.51-2.31 0-4.32-0.34-6.02-1.02-1.66-0.71-3.04-1.68-4.13-2.91-1.09-1.22-1.9-2.67-2.45-4.33-0.51-1.7-0.76-3.55-0.76-5.56zm18.21-2.6c0.03-2.14-0.51-3.89-1.64-5.25-1.08-1.4-2.6-2.1-4.53-2.1-1.09 0-2.06 0.23-2.91 0.67-0.82 0.41-1.51 0.95-2.09 1.63s-1.04 1.46-1.38 2.35c-0.31 0.88-0.51 1.78-0.61 2.7h13.16z" fill="#505050"/>
<path d="m1857.8 1267.1h-685.93c-5.53 0-10 4.48-10 10v235.9c0 5.52 4.47 10 10 10h685.93c5.52 0 10-4.48 10-10v-235.9c0-5.52-4.48-10-10-10z" fill="#E4B612"/>
<path d="m1250.6 1410.6c0 1.11-0.37 2.08-1.11 2.91-0.75 0.83-1.76 1.24-3.04 1.24s-2.3-0.41-3.04-1.24-1.12-1.8-1.12-2.91c0-1.12 0.38-2.09 1.12-2.92s1.76-1.24 3.04-1.24 2.29 0.41 3.04 1.24c0.74 0.83 1.11 1.8 1.11 2.92zm20.65 0c0 1.11-0.37 2.08-1.12 2.91-0.74 0.83-1.76 1.24-3.04 1.24s-2.29-0.41-3.03-1.24c-0.75-0.83-1.12-1.8-1.12-2.91 0-1.12 0.37-2.09 1.12-2.92 0.74-0.83 1.75-1.24 3.03-1.24s2.3 0.41 3.04 1.24c0.75 0.83 1.12 1.8 1.12 2.92zm20.64 0c0 1.11-0.37 2.08-1.11 2.91-0.75 0.83-1.76 1.24-3.04 1.24s-2.29-0.41-3.04-1.24c-0.74-0.83-1.11-1.8-1.11-2.91 0-1.12 0.37-2.09 1.11-2.92 0.75-0.83 1.76-1.24 3.04-1.24s2.29 0.41 3.04 1.24c0.74 0.83 1.11 1.8 1.11 2.92z" fill="#fff"/>
<path d="m1938.9 2h-841.24c-4.41 0-8 3.5817-8 8v1566.6c0 4.42 3.59 8 8 8h841.24c4.42 0 8-3.58 8-8v-1566.6c0-4.4183-3.58-8-8-8z" stroke="#E4B612" stroke-dasharray="12 12" stroke-width="4"/>
<path d="m1196.4 45.566v5.208h-13.51v37.758h-6.02v-37.758h-13.51v-5.208h33.04zm11.75 42.966h-5.77v-32.24h5.77v32.24zm-2.92-38.068c-1.03 0-1.92-0.3306-2.66-0.992-0.71-0.7026-1.06-1.6326-1.06-2.79 0-1.1573 0.35-2.0666 1.06-2.728 0.74-0.7026 1.63-1.054 2.66-1.054 1.04 0 1.9 0.3514 2.61 1.054 0.74 0.6614 1.11 1.5707 1.11 2.728 0 1.1574-0.37 2.0874-1.11 2.79-0.71 0.6614-1.57 0.992-2.61 0.992zm31.68 38.998c-3.02 0-5.77-0.496-8.25-1.488s-4.6-2.4386-6.38-4.34c-1.78-1.9013-3.16-4.2366-4.16-7.006-0.95-2.8106-1.42-6.014-1.42-9.61s0.54-6.7786 1.61-9.548c1.12-2.8106 2.6-5.1666 4.46-7.068 1.86-1.9013 4.03-3.348 6.51-4.34s5.13-1.488 7.94-1.488c1.78 0 3.37 0.124 4.77 0.372 1.45 0.248 2.69 0.5374 3.72 0.868 1.08 0.3307 1.95 0.6614 2.61 0.992 0.66 0.3307 1.11 0.5787 1.36 0.744l-1.73 4.96c-0.38-0.248-0.91-0.5166-1.62-0.806-0.7-0.2893-1.5-0.5786-2.41-0.868-0.87-0.2893-1.84-0.5166-2.92-0.682-1.03-0.2066-2.08-0.31-3.16-0.31-2.27 0-4.32 0.3927-6.14 1.178-1.82 0.7854-3.37 1.922-4.65 3.41s-2.27 3.3067-2.97 5.456c-0.66 2.108-1 4.4847-1 7.13 0 2.5627 0.29 4.898 0.87 7.006 0.62 2.108 1.53 3.9267 2.73 5.456 1.2 1.488 2.69 2.6454 4.46 3.472 1.82 0.8267 3.93 1.24 6.33 1.24 2.77 0 5.06-0.2893 6.88-0.868 1.82-0.5786 3.18-1.0953 4.09-1.55l1.55 4.96c-0.29 0.2067-0.8 0.4754-1.55 0.806-0.74 0.2894-1.67 0.5787-2.79 0.868-1.11 0.2894-2.42 0.5374-3.9 0.744-1.49 0.2067-3.1 0.31-4.84 0.31zm55.25-22.444c0 3.72-0.58 6.9647-1.74 9.734-1.15 2.728-2.79 5.0014-4.89 6.82-2.11 1.7774-4.63 3.1207-7.57 4.03-2.93 0.868-6.16 1.302-9.67 1.302-1.74 0-3.66-0.0826-5.77-0.248-2.06-0.124-3.94-0.3926-5.64-0.806v-41.664c1.7-0.4133 3.58-0.682 5.64-0.806 2.11-0.1653 4.03-0.248 5.77-0.248 3.51 0 6.74 0.4547 9.67 1.364 2.94 0.868 5.46 2.2114 7.57 4.03 2.1 1.7774 3.74 4.0507 4.89 6.82 1.16 2.728 1.74 5.952 1.74 9.672zm-23.37 16.616c5.7 0 9.96-1.4466 12.77-4.34 2.81-2.9346 4.21-7.0266 4.21-12.276 0-5.2493-1.4-9.3206-4.21-12.214-2.81-2.9346-7.07-4.402-12.77-4.402-1.7 0-3.02 0.0207-3.97 0.062-0.91 0.0414-1.55 0.0827-1.92 0.124v32.86c0.37 0.0414 1.01 0.0827 1.92 0.124 0.95 0.0414 2.27 0.062 3.97 0.062zm50.77 5.828c-3.02 0-5.77-0.496-8.25-1.488s-4.61-2.4386-6.39-4.34c-1.77-1.9013-3.16-4.2366-4.15-7.006-0.95-2.8106-1.43-6.014-1.43-9.61s0.54-6.7786 1.62-9.548c1.11-2.8106 2.6-5.1666 4.46-7.068 1.86-1.9013 4.03-3.348 6.51-4.34s5.13-1.488 7.94-1.488c1.77 0 3.37 0.124 4.77 0.372 1.45 0.248 2.69 0.5374 3.72 0.868 1.08 0.3307 1.94 0.6614 2.6 0.992 0.67 0.3307 1.12 0.5787 1.37 0.744l-1.74 4.96c-0.37-0.248-0.91-0.5166-1.61-0.806-0.7-0.2893-1.51-0.5786-2.42-0.868-0.87-0.2893-1.84-0.5166-2.91-0.682-1.03-0.2066-2.09-0.31-3.16-0.31-2.28 0-4.32 0.3927-6.14 1.178-1.82 0.7854-3.37 1.922-4.65 3.41s-2.27 3.3067-2.98 5.456c-0.66 2.108-0.99 4.4847-0.99 7.13 0 2.5627 0.29 4.898 0.87 7.006 0.62 2.108 1.53 3.9267 2.73 5.456 1.2 1.488 2.68 2.6454 4.46 3.472 1.82 0.8267 3.93 1.24 6.32 1.24 2.77 0 5.07-0.2893 6.89-0.868 1.82-0.5786 3.18-1.0953 4.09-1.55l1.55 4.96c-0.29 0.2067-0.81 0.4754-1.55 0.806-0.75 0.2894-1.68 0.5787-2.79 0.868-1.12 0.2894-2.42 0.5374-3.91 0.744-1.49 0.2067-3.1 0.31-4.83 0.31zm47.96-0.186c-2.61 0-4.9-0.4133-6.88-1.24-1.95-0.8266-3.6-1.984-4.96-3.472-1.33-1.488-2.32-3.2446-2.98-5.27-0.66-2.0666-0.99-4.34-0.99-6.82s0.35-4.7533 1.05-6.82c0.75-2.0666 1.78-3.844 3.1-5.332 1.32-1.5293 2.94-2.7073 4.84-3.534 1.94-0.868 4.09-1.302 6.45-1.302 1.44 0 2.89 0.124 4.34 0.372 1.44 0.248 2.83 0.6407 4.15 1.178l-1.3 4.898c-0.87-0.4133-1.88-0.744-3.04-0.992-1.12-0.248-2.31-0.372-3.6-0.372-3.22 0-5.7 1.0127-7.44 3.038-1.69 2.0254-2.54 4.9807-2.54 8.866 0 1.736 0.19 3.3274 0.56 4.774 0.41 1.4467 1.03 2.6867 1.86 3.72 0.87 1.0334 1.96 1.8394 3.29 2.418 1.32 0.5374 2.93 0.806 4.83 0.806 1.53 0 2.92-0.1446 4.16-0.434 1.24-0.2893 2.21-0.5993 2.91-0.93l0.81 4.836c-0.33 0.2067-0.81 0.4134-1.43 0.62-0.62 0.1654-1.32 0.31-2.11 0.434-0.78 0.1654-1.63 0.2894-2.54 0.372-0.87 0.124-1.72 0.186-2.54 0.186zm24.48-0.124c-3.56-0.0826-6.08-0.8473-7.57-2.294-1.48-1.4466-2.23-3.6993-2.23-6.758v-38.688l5.77-0.992v38.75c0 0.9507 0.08 1.736 0.25 2.356 0.16 0.62 0.43 1.116 0.8 1.488s0.87 0.6614 1.49 0.868c0.62 0.1654 1.38 0.31 2.29 0.434l-0.8 4.836zm32.95-1.55c-1.33 0.3307-3.08 0.682-5.27 1.054-2.15 0.372-4.65 0.558-7.5 0.558-2.48 0-4.57-0.3513-6.27-1.054-1.69-0.744-3.06-1.7773-4.09-3.1-1.03-1.3226-1.78-2.8726-2.23-4.65-0.46-1.8186-0.68-3.8233-0.68-6.014v-18.104h5.76v16.864c0 3.9267 0.62 6.7374 1.86 8.432 1.24 1.6947 3.33 2.542 6.27 2.542 0.62 0 1.26-0.0206 1.92-0.062 0.66-0.0413 1.28-0.0826 1.86-0.124 0.58-0.0826 1.09-0.1446 1.55-0.186 0.49-0.0826 0.84-0.1653 1.05-0.248v-27.218h5.77v31.31zm17.43-3.224c2.36 0 4.09-0.31 5.21-0.93 1.16-0.62 1.74-1.612 1.74-2.976 0-1.4053-0.56-2.5213-1.68-3.348-1.11-0.8266-2.95-1.7566-5.52-2.79-1.24-0.496-2.43-0.992-3.59-1.488-1.12-0.5373-2.09-1.1573-2.92-1.86-0.82-0.7026-1.48-1.55-1.98-2.542s-0.74-2.2113-0.74-3.658c0-2.852 1.05-5.1046 3.16-6.758 2.11-1.6946 4.98-2.542 8.62-2.542 0.91 0 1.82 0.062 2.72 0.186 0.91 0.0827 1.76 0.2067 2.55 0.372 0.78 0.124 1.46 0.2687 2.04 0.434 0.62 0.1654 1.1 0.31 1.43 0.434l-1.06 4.96c-0.62-0.3306-1.59-0.6613-2.91-0.992-1.32-0.372-2.91-0.558-4.77-0.558-1.62 0-3.02 0.3307-4.22 0.992-1.2 0.62-1.8 1.612-1.8 2.976 0 0.7027 0.13 1.3227 0.37 1.86 0.29 0.5374 0.71 1.0334 1.24 1.488 0.58 0.4134 1.29 0.806 2.11 1.178 0.83 0.372 1.82 0.7647 2.98 1.178 1.53 0.5787 2.89 1.1574 4.09 1.736 1.2 0.5374 2.21 1.178 3.04 1.922 0.87 0.744 1.53 1.6534 1.98 2.728 0.46 1.0334 0.68 2.3147 0.68 3.844 0 2.976-1.11 5.2287-3.34 6.758-2.19 1.5294-5.34 2.294-9.43 2.294-2.85 0-5.08-0.248-6.69-0.744-1.62-0.4546-2.71-0.806-3.29-1.054l1.05-4.96c0.67 0.248 1.72 0.62 3.17 1.116 1.44 0.496 3.37 0.744 5.76 0.744zm25.56-28.086h12.22v4.836h-12.22v14.88c0 1.612 0.13 2.9554 0.38 4.03 0.24 1.0334 0.62 1.86 1.11 2.48 0.5 0.5787 1.12 0.992 1.86 1.24 0.75 0.248 1.61 0.372 2.61 0.372 1.73 0 3.12-0.186 4.15-0.558 1.08-0.4133 1.82-0.7026 2.23-0.868l1.12 4.774c-0.58 0.2894-1.59 0.6407-3.04 1.054-1.45 0.4547-3.1 0.682-4.96 0.682-2.19 0-4.01-0.2686-5.46-0.806-1.4-0.5786-2.54-1.426-3.41-2.542-0.86-1.116-1.48-2.48-1.86-4.092-0.33-1.6533-0.49-3.5546-0.49-5.704v-28.768l5.76-0.992v9.982zm17.15 16.182c0-2.852 0.42-5.332 1.24-7.44 0.83-2.1493 1.92-3.9266 3.29-5.332 1.36-1.4053 2.93-2.4593 4.71-3.162 1.78-0.7026 3.6-1.054 5.46-1.054 4.34 0 7.66 1.364 9.98 4.092 2.31 2.6867 3.47 6.7994 3.47 12.338v0.992c0 0.372-0.02 0.7234-0.06 1.054h-22.07c0.24 3.348 1.22 5.89 2.91 7.626 1.7 1.736 4.34 2.604 7.94 2.604 2.02 0 3.72-0.1653 5.08-0.496 1.41-0.372 2.46-0.7233 3.16-1.054l0.81 4.836c-0.7 0.372-1.94 0.7647-3.72 1.178-1.74 0.4134-3.72 0.62-5.95 0.62-2.81 0-5.25-0.4133-7.32-1.24-2.02-0.868-3.7-2.046-5.02-3.534s-2.32-3.2446-2.98-5.27c-0.62-2.0666-0.93-4.3193-0.93-6.758zm22.14-3.162c0.04-2.604-0.62-4.7326-1.99-6.386-1.32-1.6946-3.16-2.542-5.52-2.542-1.32 0-2.5 0.2687-3.53 0.806-0.99 0.496-1.84 1.1574-2.54 1.984-0.7 0.8267-1.26 1.7774-1.68 2.852-0.37 1.0747-0.62 2.17-0.74 3.286h16zm26.2-13.702c0.49 0 1.05 0.0414 1.67 0.124 0.66 0.0414 1.3 0.124 1.92 0.248 0.62 0.0827 1.18 0.186 1.68 0.31 0.53 0.0827 0.93 0.1654 1.18 0.248l-1 5.022c-0.45-0.1653-1.22-0.3513-2.29-0.558-1.03-0.248-2.38-0.372-4.03-0.372-1.08 0-2.15 0.124-3.22 0.372-1.04 0.2067-1.72 0.3514-2.05 0.434v27.094h-5.77v-30.876c1.37-0.496 3.06-0.9506 5.09-1.364 2.02-0.4546 4.3-0.682 6.82-0.682z" fill="#505050"/>
<path d="m3242.2 471.64h12.09v12.091h-12.09v-12.091z" fill="#172C72"/>
<path d="m3266.4 471.64h12.1v12.091h-12.1v-12.091z" fill="#172C72"/>
<path d="m3387.3 483.72h12.09v12.091h-12.09v-12.091z" fill="#172C72"/>
<path d="m3363.1 483.72h12.09v12.091h-12.09v-12.091z" fill="#172C72"/>
<path d="m3242.2 374.91h12.09v12.091h-12.09v-12.091z" fill="#172C72"/>
<path d="m3266.4 374.91h12.1v12.091h-12.1v-12.091z" fill="#172C72"/>
<path d="m3387.3 387h12.09v12.091h-12.09v-12.091z" fill="#172C72"/>
<path d="m3363.1 387h12.09v12.091h-12.09v-12.091z" fill="#172C72"/>
<path d="m3242.2 278.18h12.09v12.091h-12.09v-12.091z" fill="#172C72"/>
<path d="m3266.4 278.18h12.1v12.091h-12.1v-12.091z" fill="#172C72"/>
<path d="m3387.3 290.27h12.09v12.091h-12.09v-12.091z" fill="#172C72"/>
<path d="m3363.1 290.27h12.09v12.091h-12.09v-12.091z" fill="#172C72"/>
<path d="m3574.7 284.23h-61.88l-24.18 12.091h-65.08v-24.182c0-4.808-1.91-9.418-5.31-12.818s-8.01-5.312-12.82-5.318h-169.27c-4.81 6e-3 -9.42 1.918-12.82 5.318s-5.31 8.01-5.32 12.818v36.273c0.01 4.808 1.92 9.417 5.32 12.817s8.01 5.313 12.82 5.319h6.04v24.182h-6.04c-4.81 6e-3 -9.42 1.918-12.82 5.318s-5.31 8.01-5.32 12.818v36.273c0.01 4.808 1.92 9.417 5.32 12.817s8.01 5.313 12.82 5.319h6.04v24.182h-6.04c-4.81 6e-3 -9.42 1.918-12.82 5.318s-5.31 8.01-5.32 12.818v36.273c0.01 4.808 1.92 9.417 5.32 12.817s8.01 5.313 12.82 5.319h169.27c4.81-6e-3 9.42-1.919 12.82-5.319s5.31-8.009 5.31-12.817v-12.091h151.14c4.81-6e-3 9.42-1.919 12.82-5.319s5.31-8.009 5.32-12.817v-169.27c-0.01-4.808-1.92-9.418-5.32-12.818s-8.01-5.312-12.82-5.318zm-344.59 24.181v-36.272c0-1.603 0.64-3.139 1.77-4.273 1.14-1.133 2.67-1.77 4.28-1.772h169.27c1.6 2e-3 3.14 0.639 4.27 1.772 1.14 1.134 1.77 2.67 1.77 4.273v36.273c0 1.603-0.64 3.139-1.77 4.272s-2.67 1.771-4.27 1.773h-169.27c-1.61-2e-3 -3.14-0.64-4.28-1.773-1.13-1.134-1.77-2.67-1.77-4.273zm24.18 18.136h133v24.182h-133v-24.182zm-24.18 78.592v-36.273c0-1.603 0.64-3.139 1.77-4.273 1.14-1.133 2.67-1.77 4.28-1.772h169.27c1.6 2e-3 3.14 0.639 4.27 1.772 1.14 1.134 1.77 2.67 1.77 4.273v36.273c0 1.603-0.64 3.139-1.77 4.272s-2.67 1.771-4.27 1.773h-169.27c-1.61-2e-3 -3.14-0.64-4.28-1.773-1.13-1.133-1.77-2.669-1.77-4.272zm24.18 18.136h133v24.182h-133v-24.182zm157.19 78.591c-0.01 1.603-0.64 3.139-1.78 4.272-1.13 1.133-2.67 1.771-4.27 1.773h-169.27c-1.61-2e-3 -3.14-0.64-4.28-1.773-1.13-1.133-1.77-2.669-1.77-4.272v-36.273c0-1.603 0.64-3.139 1.77-4.273 1.14-1.133 2.67-1.77 4.28-1.772h169.27c1.6 2e-3 3.14 0.639 4.27 1.772 1.14 1.134 1.77 2.67 1.77 4.273l0.01 36.273zm163.22-24.182h-151.14v-12.091c0-4.808-1.91-9.418-5.31-12.818s-8.01-5.312-12.82-5.318h-6.05v-24.182h6.05c4.81-6e-3 9.42-1.919 12.82-5.319s5.31-8.009 5.31-12.817v-36.273c0-4.808-1.91-9.418-5.31-12.818s-8.01-5.312-12.82-5.318h-6.05v-24.182h6.05c4.81-6e-3 9.42-1.919 12.82-5.319s5.31-8.009 5.31-12.817h67.93l24.18-12.091h59.03c1.6 2e-3 3.14 0.639 4.27 1.772 1.14 1.134 1.78 2.67 1.78 4.273v30.227h-145.09v12.091h145.09v126.96c-0.01 1.603-0.64 3.139-1.78 4.272-1.13 1.133-2.67 1.771-4.27 1.773z" fill="#172C72"/>
<path d="m3508.2 308.41h60.46v12.091h-60.46v-12.091z" fill="#172C72"/>
<path d="m3435.6 465.59h133v-96.728h-133v96.728zm12.09-84.636h108.82v72.545h-108.82v-72.545z" fill="#172C72"/>
<path d="m3459.8 393.04h84.63v12.091h-84.63v-12.091z" fill="#172C72"/>
<path d="m3459.8 417.23h84.63v12.091h-84.63v-12.091z" fill="#172C72"/>
<path d="m3321.1 440.54c29.7 0 53.78-24.077 53.78-53.778s-24.08-53.778-53.78-53.778-53.78 24.077-53.78 53.778 24.08 53.778 53.78 53.778z" fill="#31478D"/>
<path d="m3294.1 353.2c1.81 1.116 3.46 2.462 4.91 4.004 1.32-0.139 3.66 0.552 6.32 2.098 6.72 3.953 11.88 10.092 14.62 17.391 1.2 2.803 1.76 4.028 4.15 5.12 2.39 1.091 7.57 4.548 7.72 7.443 0.13 2.945-2.09 0.055-3.11-0.523s-2.81-1.742-4.1 0.792c0 0 2.79 17.634 13.49 20.834-0.11-1.872-0.35-2.996 0.18-3.79 0.53-0.795 0.37 3e-3 1.22 0.683 1.31 1.608 5.24 2.112 5.23 3.606 0 0 4.64 0.11 6.33 1.093 0.63 0.319 1.33 0.498 2.04 0.525s1.42-0.099 2.07-0.369c0.51-0.246 1.4-0.165 0.47 0.927-0.96 1.14-4.49 3.034-8.73 2.753-2.36-0.555-4.65-1.386-6.82-2.474-1.62 0.112-15.91-0.845-24.95-11.84 0 0-0.39 2.242-2.67-3.238-4.98-5.351-8.88-13.913-8.88-13.913-0.89 1.851-1.55 3.807-1.96 5.823-0.09 1.147-0.95 0.637-1.71-1.186-2.23-6.205-0.17-13.546-0.17-13.546s-0.39-1.2-1.08-3.052c-1.63-4.647-4.91-13.201-7.53-16.788-0.14-0.394-0.16-0.824-0.05-1.229 0.11-0.404 0.35-0.763 0.68-1.026 0.32-0.262 0.73-0.415 1.15-0.436 0.42-0.022 0.83 0.09 1.18 0.318z" clip-rule="evenodd" fill="#fff" fill-rule="evenodd"/>
<path d="m3303.7 362.53c1.41 1.533 2.77 3.289 2.93 4.439 0.1-1.025-0.08-2.057-0.52-2.987s-1.13-1.724-1.98-2.298c-0.27-0.207-0.55-0.393-0.84-0.554-2.09-1.313-3.11-2.019-3.11-2.019s1.81 1.611 3.52 3.419z" clip-rule="evenodd" fill="#3A58F0" fill-rule="evenodd"/>
<path d="m3317.2 596.37c-0.45-1.072-1.05-2.435-1.81-4.087-0.72-1.653-1.5-3.44-2.35-5.36-0.85-1.921-1.76-3.886-2.74-5.896-0.94-2.055-1.84-3.976-2.68-5.762-0.85-1.832-1.66-3.462-2.42-4.891-0.71-1.43-1.29-2.524-1.74-3.283-0.49 5.27-0.89 10.988-1.2 17.152-0.32 6.119-0.58 12.305-0.81 18.559h-6.36c0.18-4.02 0.38-8.063 0.6-12.127 0.22-4.11 0.47-8.13 0.74-12.06 0.31-3.976 0.62-7.839 0.93-11.591 0.36-3.752 0.74-7.303 1.14-10.653h5.7c1.2 1.965 2.5 4.288 3.88 6.968 1.39 2.68 2.77 5.494 4.16 8.442 1.38 2.903 2.72 5.829 4.02 8.777 1.29 2.903 2.48 5.561 3.55 7.973 1.07-2.412 2.26-5.07 3.55-7.973 1.3-2.948 2.64-5.874 4.02-8.777 1.39-2.948 2.77-5.762 4.15-8.442 1.39-2.68 2.68-5.003 3.89-6.968h5.7c1.51 14.963 2.65 30.44 3.41 46.431h-6.36c-0.23-6.254-0.49-12.44-0.81-18.559-0.31-6.164-0.71-11.882-1.2-17.152-0.45 0.759-1.05 1.853-1.81 3.283-0.72 1.429-1.5 3.059-2.35 4.891-0.84 1.786-1.76 3.707-2.74 5.762-0.94 2.01-1.83 3.975-2.68 5.896-0.85 1.92-1.66 3.707-2.42 5.36-0.71 1.652-1.29 3.015-1.74 4.087h-5.22zm33.03 12.931c0.5 0.223 1.12 0.424 1.88 0.603 0.8 0.223 1.59 0.335 2.35 0.335 2.45 0 4.37-0.559 5.76-1.675 1.38-1.072 2.63-2.837 3.75-5.293-2.81-5.36-5.45-11.033-7.91-17.018-2.41-6.03-4.42-12.127-6.03-18.291h6.7c0.49 2.01 1.08 4.176 1.75 6.499 0.71 2.322 1.49 4.712 2.34 7.169 0.85 2.456 1.76 4.913 2.75 7.37 0.98 2.456 2.01 4.824 3.08 7.102 1.7-4.69 3.17-9.336 4.42-13.936 1.25-4.601 2.44-9.336 3.55-14.204h6.43c-1.6 6.566-3.39 12.886-5.36 18.961-1.96 6.03-4.08 11.68-6.36 16.951-0.89 2.01-1.83 3.729-2.81 5.159-0.94 1.474-1.99 2.68-3.15 3.618-1.17 0.938-2.48 1.63-3.96 2.077-1.43 0.446-3.06 0.67-4.89 0.67-0.49 0-1-0.045-1.54-0.134-0.53-0.045-1.07-0.134-1.61-0.268-0.49-0.09-0.96-0.201-1.4-0.335-0.41-0.134-0.7-0.246-0.87-0.335l1.13-5.025zm48.58-11.122c6.79 0 10.19-2.323 10.19-6.968 0-1.43-0.31-2.636-0.94-3.618-0.58-1.028-1.38-1.899-2.41-2.613-1.03-0.76-2.21-1.407-3.55-1.943-1.3-0.536-2.68-1.072-4.16-1.608-1.69-0.581-3.3-1.229-4.82-1.943-1.52-0.76-2.84-1.631-3.95-2.613-1.12-1.028-2.01-2.234-2.68-3.618-0.63-1.385-0.94-3.06-0.94-5.025 0-4.065 1.38-7.236 4.15-9.514s6.59-3.417 11.46-3.417c2.81 0 5.36 0.312 7.64 0.938 2.32 0.58 4.02 1.228 5.09 1.943l-2.08 5.293c-0.94-0.581-2.34-1.139-4.22-1.675-1.83-0.581-3.97-0.871-6.43-0.871-1.25 0-2.41 0.134-3.49 0.402-1.07 0.268-2.01 0.67-2.81 1.206s-1.45 1.228-1.94 2.077c-0.45 0.804-0.67 1.764-0.67 2.881 0 1.25 0.24 2.3 0.73 3.149 0.5 0.848 1.19 1.608 2.08 2.278 0.9 0.625 1.92 1.206 3.08 1.742 1.21 0.536 2.53 1.072 3.96 1.608 2.01 0.804 3.84 1.608 5.49 2.412 1.7 0.804 3.15 1.764 4.36 2.881 1.25 1.116 2.21 2.456 2.88 4.02 0.67 1.518 1 3.372 1 5.561 0 4.064-1.49 7.191-4.49 9.38-2.95 2.188-7.12 3.283-12.53 3.283-1.83 0-3.52-0.134-5.09-0.402-1.52-0.224-2.88-0.492-4.09-0.804-1.2-0.358-2.25-0.715-3.14-1.072-0.85-0.402-1.52-0.737-2.01-1.005l1.94-5.36c1.03 0.58 2.59 1.228 4.69 1.943 2.1 0.714 4.67 1.072 7.7 1.072zm23-18.626c0-3.976 0.58-7.482 1.74-10.519 1.21-3.038 2.82-5.561 4.83-7.571 2.05-2.055 4.42-3.596 7.1-4.623 2.72-1.028 5.6-1.541 8.64-1.541 2.99 0 5.81 0.513 8.44 1.541 2.68 1.027 5.03 2.568 7.04 4.623 2.01 2.01 3.59 4.533 4.76 7.571 1.2 3.037 1.8 6.543 1.8 10.519 0 3.484-0.44 6.588-1.34 9.313-0.89 2.724-2.14 5.092-3.75 7.102-1.56 1.965-3.41 3.573-5.56 4.824-2.1 1.206-4.35 2.032-6.77 2.479 0.05 1.027 0.5 1.92 1.34 2.68 0.9 0.804 2.01 1.474 3.35 2.01s2.84 0.982 4.49 1.34c1.66 0.357 3.31 0.625 4.96 0.804l-1.54 5.092c-2.32-0.313-4.56-0.737-6.7-1.273-2.1-0.492-4.02-1.162-5.76-2.01-1.7-0.849-3.13-1.943-4.29-3.283-1.16-1.296-1.94-2.926-2.34-4.891-2.82-0.179-5.48-0.827-7.98-1.943-2.5-1.162-4.67-2.747-6.5-4.757-1.83-2.055-3.28-4.534-4.35-7.437-1.07-2.904-1.61-6.254-1.61-10.05zm6.83 0c0 2.814 0.36 5.382 1.08 7.705 0.71 2.278 1.72 4.221 3.01 5.829 1.34 1.608 2.95 2.858 4.83 3.752 1.92 0.848 4.06 1.273 6.43 1.273 2.36 0 4.49-0.425 6.36-1.273 1.88-0.894 3.46-2.144 4.76-3.752 1.34-1.608 2.37-3.551 3.08-5.829 0.72-2.323 1.07-4.891 1.07-7.705s-0.35-5.36-1.07-7.638c-0.71-2.323-1.74-4.288-3.08-5.896-1.3-1.608-2.88-2.837-4.76-3.685-1.87-0.894-4-1.34-6.36-1.34-2.37 0-4.51 0.446-6.43 1.34-1.88 0.848-3.49 2.077-4.83 3.685-1.29 1.608-2.3 3.573-3.01 5.896-0.72 2.278-1.08 4.824-1.08 7.638zm75.13 17.621v5.628h-27.94v-46.431h6.5v40.803h21.44z" fill="#31478D"/>
<path d="m2951.8 406.86c0-3.086 0.45-5.807 1.35-8.164 0.94-2.358 2.19-4.316 3.75-5.876 1.59-1.595 3.43-2.791 5.51-3.588 2.11-0.798 4.35-1.196 6.71-1.196 2.32 0 4.5 0.398 6.55 1.196 2.08 0.797 3.9 1.993 5.46 3.588 1.56 1.56 2.79 3.518 3.69 5.876 0.94 2.357 1.41 5.078 1.41 8.164 0 3.085-0.47 5.806-1.41 8.164-0.9 2.357-2.13 4.333-3.69 5.928-1.56 1.56-3.38 2.738-5.46 3.536-2.05 0.797-4.23 1.196-6.55 1.196-2.36 0-4.6-0.399-6.71-1.196-2.08-0.798-3.92-1.976-5.51-3.536-1.56-1.595-2.81-3.571-3.75-5.928-0.9-2.358-1.35-5.079-1.35-8.164zm5.31 0c0 2.184 0.27 4.177 0.83 5.98 0.55 1.768 1.33 3.276 2.34 4.524 1.04 1.248 2.29 2.218 3.74 2.912 1.49 0.658 3.16 0.988 4.99 0.988 1.84 0 3.49-0.33 4.94-0.988 1.46-0.694 2.69-1.664 3.7-2.912 1.04-1.248 1.83-2.756 2.39-4.524 0.55-1.803 0.83-3.796 0.83-5.98s-0.28-4.16-0.83-5.928c-0.56-1.803-1.35-3.328-2.39-4.576-1.01-1.248-2.24-2.202-3.7-2.86-1.45-0.694-3.1-1.04-4.94-1.04-1.83 0-3.5 0.346-4.99 1.04-1.45 0.658-2.7 1.612-3.74 2.86-1.01 1.248-1.79 2.773-2.34 4.576-0.56 1.768-0.83 3.744-0.83 5.928zm54.25 2.964c0.55 0.693 1.25 1.612 2.08 2.756 0.87 1.109 1.75 2.357 2.65 3.744 0.9 1.352 1.79 2.773 2.65 4.264 0.9 1.49 1.67 2.929 2.29 4.316h-5.51c-0.69-1.318-1.46-2.652-2.29-4.004-0.8-1.352-1.61-2.635-2.44-3.848-0.84-1.248-1.67-2.41-2.5-3.484-0.8-1.075-1.52-2.011-2.18-2.808-0.45 0.034-0.92 0.052-1.41 0.052h-1.4-4.53v14.092h-5.04v-35.516c1.42-0.347 3-0.572 4.73-0.676 1.77-0.139 3.38-0.208 4.84-0.208 5.06 0 8.91 0.953 11.54 2.86 2.67 1.906 4.01 4.749 4.01 8.528 0 2.392-0.64 4.437-1.93 6.136-1.25 1.698-3.1 2.964-5.56 3.796zm-7.65-16.9c-2.14 0-3.79 0.052-4.94 0.156v13.572h3.59c1.74 0 3.3-0.087 4.68-0.26 1.39-0.174 2.55-0.503 3.49-0.988 0.97-0.486 1.71-1.162 2.23-2.028 0.52-0.902 0.78-2.08 0.78-3.536 0-1.352-0.26-2.479-0.78-3.38-0.52-0.902-1.23-1.612-2.13-2.132-0.87-0.52-1.91-0.884-3.12-1.092-1.18-0.208-2.44-0.312-3.8-0.312z" fill="#31478D"/>
<path d="m2718.2 518.96h-328.83c-17.69-6e-3 -34.68-6.918-47.35-19.263-12.67-12.346-20.01-29.15-20.48-46.834-0.46-17.683 6-34.849 18.01-47.84 12-12.991 28.61-20.781 46.27-21.711l6.02-0.317 2.28-5.584c5.11-12.531 13.82-23.264 25.03-30.839 11.21-7.572 24.42-11.648 37.94-11.713 7.11-6e-3 14.16 1.121 20.91 3.337l6.63 2.175 4.06-5.666c10.71-14.946 24.84-27.117 41.2-35.502 16.37-8.384 34.5-12.739 52.89-12.702h0.01 0.01c54.24 0 101.33 38.24 113.2 90.415l2 8.761 8.86-1.504c9.26-1.572 18.74-1.204 27.86 1.08 9.11 2.284 17.65 6.435 25.07 12.19 7.43 5.754 13.58 12.988 18.06 21.242 4.49 8.254 7.21 17.35 8 26.711 0.78 9.36-0.38 18.783-3.42 27.671s-7.9 17.047-14.26 23.962c-6.35 6.915-14.08 12.434-22.68 16.21-8.6 3.775-17.89 5.723-27.29 5.721z" stroke="#31478D" stroke-width="19"/>
<path d="m2521.2 341.18 13.67 13.671c12.71-12.676 29.93-19.795 47.88-19.795s35.16 7.119 47.87 19.795l13.67-13.671c-16.33-16.3-38.47-25.454-61.54-25.454-23.08 0-45.21 9.154-61.55 25.454z" fill="#31478D"/>
<path d="m2756.9 451.09c-0.01-10.257-4.09-20.091-11.35-27.344-7.25-7.253-17.08-11.332-27.34-11.342v19.343c5.13 0 10.05 2.038 13.68 5.666 3.62 3.627 5.66 8.547 5.66 13.677s-2.04 10.05-5.66 13.678c-3.63 3.627-8.55 5.665-13.68 5.665v19.343c10.26-0.01 20.09-4.089 27.34-11.342 7.26-7.253 11.34-17.087 11.35-27.344z" fill="#31478D"/>
<path d="m2392.2 425.55v5.208h-13.51v37.758h-6.02v-37.758h-13.51v-5.208h33.04zm11.75 42.966h-5.77v-32.24h5.77v32.24zm-2.92-38.068c-1.03 0-1.92-0.331-2.66-0.992-0.7-0.703-1.06-1.633-1.06-2.79s0.36-2.067 1.06-2.728c0.74-0.703 1.63-1.054 2.66-1.054 1.04 0 1.91 0.351 2.61 1.054 0.74 0.661 1.11 1.571 1.11 2.728s-0.37 2.087-1.11 2.79c-0.7 0.661-1.57 0.992-2.61 0.992zm48.48 16.554c0 3.72-0.57 6.965-1.73 9.734-1.16 2.728-2.79 5.001-4.9 6.82-2.11 1.777-4.63 3.121-7.56 4.03-2.94 0.868-6.16 1.302-9.68 1.302-1.73 0-3.65-0.083-5.76-0.248-2.07-0.124-3.95-0.393-5.64-0.806v-41.664c1.69-0.413 3.57-0.682 5.64-0.806 2.11-0.165 4.03-0.248 5.76-0.248 3.52 0 6.74 0.455 9.68 1.364 2.93 0.868 5.45 2.211 7.56 4.03 2.11 1.777 3.74 4.051 4.9 6.82 1.16 2.728 1.73 5.952 1.73 9.672zm-23.37 16.616c5.7 0 9.96-1.447 12.77-4.34 2.81-2.935 4.22-7.027 4.22-12.276s-1.41-9.321-4.22-12.214c-2.81-2.935-7.07-4.402-12.77-4.402-1.69 0-3.02 0.021-3.97 0.062-0.91 0.041-1.55 0.083-1.92 0.124v32.86c0.37 0.041 1.01 0.083 1.92 0.124 0.95 0.041 2.28 0.062 3.97 0.062zm43.89 5.27c-0.87 0-1.82-0.021-2.85-0.062-1-0.041-2.01-0.103-3.04-0.186-0.99-0.083-1.99-0.186-2.98-0.31s-1.9-0.289-2.73-0.496v-41.664c0.83-0.207 1.74-0.372 2.73-0.496s1.99-0.227 2.98-0.31c1.03-0.083 2.04-0.145 3.04-0.186 0.99-0.041 1.92-0.062 2.79-0.062 2.48 0 4.79 0.186 6.94 0.558 2.19 0.372 4.07 1.013 5.64 1.922 1.61 0.868 2.88 2.025 3.78 3.472 0.91 1.447 1.37 3.224 1.37 5.332 0 2.356-0.56 4.299-1.68 5.828-1.11 1.488-2.6 2.604-4.46 3.348 2.52 0.744 4.53 1.922 6.01 3.534 1.49 1.612 2.24 3.885 2.24 6.82 0 4.299-1.59 7.543-4.78 9.734-3.14 2.149-8.14 3.224-15 3.224zm-5.64-20.398v15.128c0.45 0.041 0.99 0.083 1.61 0.124 0.54 0.041 1.16 0.083 1.86 0.124h2.54c1.78 0 3.45-0.103 5.02-0.31 1.61-0.248 3.02-0.661 4.22-1.24s2.15-1.385 2.85-2.418c0.74-1.033 1.12-2.335 1.12-3.906 0-1.405-0.27-2.583-0.81-3.534-0.54-0.992-1.32-1.777-2.36-2.356-0.99-0.579-2.19-0.992-3.59-1.24-1.41-0.248-2.98-0.372-4.71-0.372h-7.75zm0-4.836h6.32c1.49 0 2.89-0.103 4.22-0.31 1.32-0.207 2.46-0.579 3.41-1.116 0.99-0.537 1.75-1.24 2.29-2.108 0.58-0.868 0.87-1.963 0.87-3.286 0-1.24-0.29-2.273-0.87-3.1-0.58-0.868-1.38-1.55-2.42-2.046-0.99-0.537-2.17-0.93-3.53-1.178-1.37-0.248-2.81-0.372-4.34-0.372s-2.73 0.021-3.6 0.062-1.65 0.103-2.35 0.186v13.268zm61.87 25.606c-2.6 0-4.89-0.413-6.88-1.24-1.94-0.827-3.59-1.984-4.96-3.472-1.32-1.488-2.31-3.245-2.97-5.27-0.66-2.067-1-4.34-1-6.82s0.36-4.753 1.06-6.82c0.74-2.067 1.78-3.844 3.1-5.332 1.32-1.529 2.93-2.707 4.83-3.534 1.95-0.868 4.1-1.302 6.45-1.302 1.45 0 2.9 0.124 4.34 0.372 1.45 0.248 2.83 0.641 4.16 1.178l-1.31 4.898c-0.86-0.413-1.88-0.744-3.03-0.992-1.12-0.248-2.32-0.372-3.6-0.372-3.22 0-5.7 1.013-7.44 3.038-1.69 2.025-2.54 4.981-2.54 8.866 0 1.736 0.18 3.327 0.56 4.774 0.41 1.447 1.03 2.687 1.86 3.72 0.86 1.033 1.96 1.839 3.28 2.418 1.33 0.537 2.94 0.806 4.84 0.806 1.53 0 2.91-0.145 4.15-0.434s2.21-0.599 2.92-0.93l0.8 4.836c-0.33 0.207-0.8 0.413-1.42 0.62-0.62 0.165-1.33 0.31-2.11 0.434-0.79 0.165-1.63 0.289-2.54 0.372-0.87 0.124-1.72 0.186-2.55 0.186zm24.48-0.124c-3.55-0.083-6.07-0.847-7.56-2.294s-2.23-3.699-2.23-6.758v-38.688l5.76-0.992v38.75c0 0.951 0.09 1.736 0.25 2.356 0.17 0.62 0.44 1.116 0.81 1.488s0.87 0.661 1.49 0.868c0.62 0.165 1.38 0.31 2.29 0.434l-0.81 4.836zm32.95-1.55c-1.32 0.331-3.08 0.682-5.27 1.054-2.15 0.372-4.65 0.558-7.5 0.558-2.48 0-4.57-0.351-6.26-1.054-1.69-0.744-3.06-1.777-4.09-3.1-1.04-1.323-1.78-2.873-2.23-4.65-0.46-1.819-0.69-3.823-0.69-6.014v-18.104h5.77v16.864c0 3.927 0.62 6.737 1.86 8.432s3.33 2.542 6.26 2.542c0.62 0 1.26-0.021 1.92-0.062 0.67-0.041 1.29-0.083 1.86-0.124 0.58-0.083 1.1-0.145 1.55-0.186 0.5-0.083 0.85-0.165 1.06-0.248v-27.218h5.76v31.31zm17.44-3.224c2.36 0 4.09-0.31 5.21-0.93 1.15-0.62 1.73-1.612 1.73-2.976 0-1.405-0.55-2.521-1.67-3.348s-2.96-1.757-5.52-2.79c-1.24-0.496-2.44-0.992-3.59-1.488-1.12-0.537-2.09-1.157-2.92-1.86s-1.49-1.55-1.98-2.542c-0.5-0.992-0.75-2.211-0.75-3.658 0-2.852 1.06-5.105 3.17-6.758 2.1-1.695 4.98-2.542 8.61-2.542 0.91 0 1.82 0.062 2.73 0.186 0.91 0.083 1.76 0.207 2.54 0.372 0.79 0.124 1.47 0.269 2.05 0.434 0.62 0.165 1.09 0.31 1.43 0.434l-1.06 4.96c-0.62-0.331-1.59-0.661-2.91-0.992-1.33-0.372-2.92-0.558-4.78-0.558-1.61 0-3.01 0.331-4.21 0.992-1.2 0.62-1.8 1.612-1.8 2.976 0 0.703 0.12 1.323 0.37 1.86 0.29 0.537 0.7 1.033 1.24 1.488 0.58 0.413 1.28 0.806 2.11 1.178s1.82 0.765 2.98 1.178c1.52 0.579 2.89 1.157 4.09 1.736 1.2 0.537 2.21 1.178 3.04 1.922 0.86 0.744 1.52 1.653 1.98 2.728 0.45 1.033 0.68 2.315 0.68 3.844 0 2.976-1.11 5.229-3.35 6.758-2.19 1.529-5.33 2.294-9.42 2.294-2.85 0-5.08-0.248-6.7-0.744-1.61-0.455-2.7-0.806-3.28-1.054l1.05-4.96c0.66 0.248 1.72 0.62 3.16 1.116 1.45 0.496 3.37 0.744 5.77 0.744zm25.56-28.086h12.22v4.836h-12.22v14.88c0 1.612 0.13 2.955 0.37 4.03 0.25 1.033 0.62 1.86 1.12 2.48 0.5 0.579 1.12 0.992 1.86 1.24s1.61 0.372 2.6 0.372c1.74 0 3.12-0.186 4.16-0.558 1.07-0.413 1.82-0.703 2.23-0.868l1.12 4.774c-0.58 0.289-1.6 0.641-3.04 1.054-1.45 0.455-3.1 0.682-4.96 0.682-2.19 0-4.01-0.269-5.46-0.806-1.4-0.579-2.54-1.426-3.41-2.542s-1.49-2.48-1.86-4.092c-0.33-1.653-0.49-3.555-0.49-5.704v-28.768l5.76-0.992v9.982zm17.15 16.182c0-2.852 0.41-5.332 1.24-7.44 0.83-2.149 1.92-3.927 3.29-5.332 1.36-1.405 2.93-2.459 4.71-3.162 1.77-0.703 3.59-1.054 5.45-1.054 4.34 0 7.67 1.364 9.99 4.092 2.31 2.687 3.47 6.799 3.47 12.338v0.992c0 0.372-0.02 0.723-0.06 1.054h-22.08c0.25 3.348 1.22 5.89 2.92 7.626 1.69 1.736 4.34 2.604 7.93 2.604 2.03 0 3.72-0.165 5.09-0.496 1.4-0.372 2.46-0.723 3.16-1.054l0.81 4.836c-0.71 0.372-1.95 0.765-3.72 1.178-1.74 0.413-3.72 0.62-5.96 0.62-2.81 0-5.25-0.413-7.31-1.24-2.03-0.868-3.7-2.046-5.02-3.534-1.33-1.488-2.32-3.245-2.98-5.27-0.62-2.067-0.93-4.319-0.93-6.758zm22.13-3.162c0.04-2.604-0.62-4.733-1.98-6.386-1.32-1.695-3.16-2.542-5.52-2.542-1.32 0-2.5 0.269-3.53 0.806-0.99 0.496-1.84 1.157-2.54 1.984-0.71 0.827-1.27 1.777-1.68 2.852-0.37 1.075-0.62 2.17-0.74 3.286h15.99zm26.2-13.702c0.5 0 1.06 0.041 1.68 0.124 0.66 0.041 1.3 0.124 1.92 0.248 0.62 0.083 1.18 0.186 1.67 0.31 0.54 0.083 0.93 0.165 1.18 0.248l-0.99 5.022c-0.45-0.165-1.22-0.351-2.29-0.558-1.04-0.248-2.38-0.372-4.03-0.372-1.08 0-2.15 0.124-3.23 0.372-1.03 0.207-1.71 0.351-2.04 0.434v27.094h-5.77v-30.876c1.36-0.496 3.06-0.951 5.08-1.364 2.03-0.455 4.3-0.682 6.82-0.682z" fill="#31478D"/>
<path d="m2036 398.26v40.451h127.24v-40.451h-127.24z" fill="#707070"/>
<path d="m2149.1 466.46v-92.822l46.42 46.411-46.42 46.411z" fill="#707070"/>
<path d="m910.08 101.47v40.451h102.53v-40.451h-102.53z" fill="#707070"/>
<path d="m998.46 169.68v-92.822l46.415 46.411-46.415 46.411z" fill="#707070"/>
<path d="m926.1 76.856v92.822l-46.411-46.411 46.411-46.411z" fill="#707070"/>
<path d="M767 593.616V634.067H894.244V593.616H767Z" fill="#707070"/>
<path d="m880.08 661.82v-92.822l46.411 46.411-46.411 46.411z" fill="#707070"/>
<path d="M767 935.616V976.067H894.244V935.616H767Z" fill="#707070"/>
<path d="m880.08 1003.8v-92.82l46.411 46.411-46.411 46.409z" fill="#707070"/>
<path d="m767 1287.6v40.45h127.24v-40.45h-127.24z" fill="#707070"/>
<path d="m880.08 1355.8v-92.82l46.411 46.41-46.411 46.41z" fill="#707070"/>
<path d="m2342.7 1285.3c-8.51-3.03-15.43-9.37-19.32-17.71-2.8-6-3.46-16.04-1.51-22.75 2.62-9.02 11.18-18.25 19.73-21.29l4.19-1.49v-13.51l-4.53-1.43c-9.07-2.86-18.55-10.89-23.41-19.82-6.15-11.3-6.15-27.88 0-39.19 4.86-8.93 14.34-16.96 23.41-19.81l4.53-1.44v-13.51l-4.19-1.49c-8.55-3.03-17.11-12.27-19.73-21.28-1.97-6.78-1.29-16.73 1.58-22.98 2.84-6.2 10-13.38 16.27-16.32 4.28-2.01 5.81-2.26 13.6-2.26s9.31 0.25 13.59 2.26c6.27 2.94 13.44 10.12 16.28 16.32 2.86 6.25 3.54 16.2 1.57 22.98-2.62 9.03-11.18 18.25-19.75 21.29l-4.23 1.5 0.48 13.2 4.38 1.12c5.87 1.49 10.06 3.72 15.75 8.35l4.73 3.86 3.45-1.92c1.9-1.05 4.7-2.69 6.24-3.65l2.79-1.74 0.14-8.77c0.11-7.62 0.43-9.4 2.39-13.59 2.91-6.21 10.11-13.41 16.32-16.32 4.28-2.01 5.81-2.26 13.6-2.26s9.32 0.25 13.6 2.26c6.21 2.91 13.41 10.11 16.32 16.32 2 4.28 2.26 5.81 2.26 13.6s-0.26 9.31-2.26 13.59c-2.91 6.21-10.11 13.42-16.32 16.33-4.28 2-5.81 2.26-13.6 2.26-9.9 0-14.02-1.35-20.59-6.74l-3.59-2.94-6.32 3.58-6.32 3.59 0.65 3.34c0.84 4.34 0.83 17.51-0.01 21.49l-0.66 3.09 12.84 7.52 3.5-2.87c6.48-5.31 10.63-6.66 20.5-6.66 7.79 0 9.32 0.25 13.6 2.26 6.21 2.91 13.41 10.11 16.32 16.32 2 4.28 2.26 5.81 2.26 13.6s-0.26 9.32-2.26 13.6c-2.91 6.21-10.11 13.41-16.32 16.32-4.28 2-5.81 2.26-13.6 2.26s-9.32-0.26-13.6-2.26c-6.21-2.91-13.41-10.11-16.32-16.32-2.01-4.3-2.26-5.8-2.26-13.76v-8.94l-5.96-3.39c-3.28-1.87-6.2-3.39-6.49-3.39s-2.61 1.69-5.15 3.76c-5.57 4.54-9.79 6.77-15.63 8.26l-4.38 1.12-0.24 6.59-0.24 6.6 4.23 1.5c8.57 3.05 17.13 12.27 19.75 21.3 1.97 6.77 1.29 16.72-1.57 22.97s-10.02 13.4-16.28 16.29c-6.45 2.97-17.69 3.53-24.21 1.2zm16.7-17.19c9.8-4.19 12.09-17.59 4.26-24.92-9.67-9.04-25.39-2.22-25.39 11.03 0 8.51 6.35 14.93 14.86 15.01 1.97 0.02 4.79-0.49 6.27-1.12zm77.74-42.63c9.79-4.19 12.08-17.59 4.25-24.91-9.67-9.05-25.39-2.22-25.39 11.02 0 8.52 6.36 14.93 14.87 15.01 1.97 0.02 4.79-0.48 6.27-1.12zm-74.16-35.35c5.53-1.88 12.13-8.49 14.01-14.01 3.16-9.26 1.1-18.44-5.65-25.18-9.56-9.57-23.98-9.57-33.54 0-6.75 6.74-8.81 15.92-5.65 25.18 1.8 5.28 8.51 12.14 13.67 13.96 4.97 1.75 12.1 1.77 17.16 0.05zm74.16-52.41c9.79-4.19 12.08-17.59 4.25-24.91-9.67-9.05-25.39-2.23-25.39 11.02 0 8.52 6.36 14.93 14.87 15.01 1.97 0.02 4.79-0.49 6.27-1.12zm-77.74-42.63c9.8-4.19 12.09-17.59 4.26-24.91-9.67-9.05-25.39-2.22-25.39 11.02 0 8.52 6.35 14.93 14.86 15.01 1.97 0.02 4.79-0.48 6.27-1.12zm214.35 131.47c-14.19-3.34-24.01-17.5-24.01-34.61 0-19.18 11.75-33.67 28.59-35.24 6.71-0.62 13.04 1.09 18.9 5.12l4.23 2.91 0.26-3.11 0.26-3.12 15.46-0.48v67.83l-15.46-0.48-0.27-2.72c-0.14-1.49-0.43-2.71-0.63-2.71s-1.93 1.13-3.85 2.51c-6.16 4.47-15.21 6.05-23.48 4.1zm16.19-14.25c8.04-2.69 12.75-10.21 12.71-20.32-0.02-6.85-1.62-11.3-5.52-15.37-3.92-4.09-7.03-5.43-12.77-5.5-7.22-0.1-12.32 3.11-15.8 9.93-4.9 9.58-2.63 22.69 4.93 28.45 4.78 3.65 10.85 4.68 16.45 2.81zm170.19 13.97c-12.07-3.25-21.49-15.79-22.85-30.44-1.48-15.88 5.92-30.38 18.67-36.62 3.98-1.95 5.86-2.33 11.48-2.35 7.79-0.03 12.8 1.57 18.48 5.91l3.71 2.83v-7.58l15.46 0.48v66.87l-15.46 0.48v-6.77l-4.5 2.99c-7.83 5.2-16.1 6.59-24.99 4.2zm17.37-13.95c7.93-2.18 13.71-12.51 12.65-22.63-0.82-7.85-4.36-13.82-9.86-16.63-7.09-3.62-14.38-2.74-20.11 2.41-4.8 4.33-6.69 9.02-6.69 16.6 0 15.02 10.58 23.94 24.01 20.25zm-286.27-44.59v-58.12h15.88v69.77l10.67-10.65 10.67-10.64h10.22c5.63 0 10.23 0.2 10.23 0.45 0 0.26-6.4 6.74-14.22 14.42l-14.22 13.96 15.54 19.23 15.53 19.22-9.41 0.24c-5.18 0.13-9.87 0.06-10.42-0.15s-5.89-6.6-11.88-14.21c-8.31-10.55-11.09-13.57-11.77-12.75-0.53 0.63-0.99 6.43-1.13 13.97l-0.23 12.9-15.46 0.48v-58.12zm143.48 57.5c-0.3-0.31-0.55-12.15-0.55-26.33v-25.77h-5.02v-15.04h5.02l0.01-13.17c0.03-23.56 2.06-30.11 10.75-34.65 3.69-1.93 5.52-2.33 10.52-2.33 3.33 0 7.23 0.41 8.68 0.91l2.63 0.92v16.4l-3.3-1.59c-3.35-1.62-8.06-2.08-9.74-0.96-2.5 1.68-3.13 5.17-3.51 19.63l-0.39 14.84h16.94v15.04h-16.71v52.66h-7.39c-4.06 0-7.63-0.25-7.94-0.56zm43.74-57.53v-58.09h15.89v69.77l10.66-10.65 10.67-10.64h10.23c5.62 0 10.23 0.3 10.23 0.67s-6.4 6.79-14.21 14.27l-14.2 13.6 15.46 19.13c8.5 10.52 15.45 19.33 15.45 19.58 0 0.24-4.5 0.45-10 0.45h-10l-11.08-14.16c-8.49-10.86-11.32-13.95-12.14-13.27-0.79 0.65-1.07 4.39-1.07 14.16v13.27h-15.89v-58.09zm138.18 56.86c-2.78-1.2-5.28-4.97-5.28-7.95 0-8.49 9.96-12.93 16.14-7.19 4.71 4.36 3.42 12.76-2.33 15.16-3.54 1.48-5.1 1.48-8.53-0.02zm8.64-2.06c3.16-1.92 4.27-5.69 2.76-9.34-1.03-2.49-4.53-4.92-7.07-4.92-2.53 0-6.03 2.43-7.06 4.92-3.09 7.44 4.4 13.59 11.37 9.34zm-7.23-6.32c0-5.78 0.65-6.49 4.23-4.57 1.91 1.02 2.15 4 0.37 4.68-1.05 0.4-0.98 0.85 0.47 2.9 2.04 2.86 0.54 3.31-1.78 0.54l-1.57-1.88-0.02 1.88c-0.02 1.03-0.41 1.88-0.87 1.88-0.47 0-0.83-2.37-0.83-5.43zm3.76-2.09c0-0.62-0.47-1.28-1.05-1.47-0.62-0.2-1.04 0.39-1.04 1.47 0 1.07 0.42 1.67 1.04 1.46 0.58-0.19 1.05-0.85 1.05-1.46zm-302.99-83.9c0-1.55 9.42-19.83 9.91-19.25 1.4 1.62 8.73 18.76 8.23 19.25-0.96 0.96-3.11-0.46-3.92-2.59-0.71-1.86-1.29-2.11-4.9-2.11-3.77 0-4.19 0.2-5.14 2.51-0.63 1.52-1.65 2.5-2.61 2.5-0.86 0-1.57-0.14-1.57-0.31zm11.67-8.25c-0.05-1.78-2.21-5.08-2.75-4.21-0.28 0.46-0.89 1.83-1.35 3.04-0.79 2.08-0.7 2.21 1.65 2.21 1.44 0 2.47-0.44 2.45-1.04zm10.06-1.05v-9.61l3.55 0.01c4.07 0.02 4.99 0.48 6.43 3.2 1.46 2.77-0.24 6.68-3.19 7.32-4.16 0.9-4.28 1.04-4.28 4.91 0 2.81-0.32 3.78-1.25 3.78-1.05 0-1.26-1.62-1.26-9.61zm6.52-2.26c1.42-1.41 1.25-3.74-0.32-4.34-2.85-1.09-3.69-0.55-3.69 2.42 0 2.26 0.34 2.93 1.5 2.93 0.83 0 1.96-0.45 2.51-1.01zm3.5 11.25c-0.03-1.08 8.6-19.44 9.13-19.44 0.44 0 8.11 16.67 8.64 18.8 0.12 0.45-0.45 0.95-1.27 1.11-1.03 0.2-1.76-0.5-2.38-2.29-0.84-2.4-1.17-2.57-4.97-2.57-3.69 0-4.2 0.24-5.38 2.51-1.15 2.23-3.73 3.51-3.77 1.88zm11.71-7.36c0-0.25-0.6-1.63-1.35-3.07-1.41-2.73-1.94-2.45-3.2 1.65-0.51 1.67-0.28 1.88 1.99 1.88 1.41 0 2.56-0.21 2.56-0.46zm12.62 6.93c-7.05-3.63-7.05-14.15 0-17.8 4.39-2.26 9.95-1.04 9.95 2.2 0 1.39-0.27 1.52-1.62 0.8-2.51-1.34-6.36-1.02-8.51 0.72-1.47 1.19-1.95 2.42-1.95 5.01 0 5.68 3.72 8.12 9.78 6.41 1.81-0.51 2.3-0.37 2.3 0.67 0 2.79-6.03 4-9.95 1.99zm13.85 0.5c-0.3-0.31-0.56-4.64-0.56-9.62 0-8.49 0.11-9.05 1.68-9.05 1.39 0 1.67 0.56 1.67 3.34v3.35h8.36v-3.35c0-2.41 0.34-3.34 1.25-3.34 1.04 0 1.25 1.62 1.25 9.61s-0.21 9.61-1.25 9.61c-0.96 0-1.25-1.06-1.25-4.59v-4.6h-8.36v4.6c0 3.27-0.32 4.59-1.12 4.59-0.61 0-1.36-0.25-1.67-0.55zm18.39 0c-0.31-0.31-0.56-4.64-0.56-9.62v-9.05h5.44c4.27 0 5.43 0.27 5.43 1.25 0 0.93-0.98 1.26-3.76 1.26-3.46 0-3.76 0.17-3.76 2.09s0.3 2.09 3.76 2.09c3.2 0 3.76 0.24 3.76 1.67 0 1.42-0.56 1.67-3.76 1.67-3.74 0-3.76 0.01-3.76 2.92s0.02 2.93 3.76 2.93c3.2 0 3.76 0.25 3.76 1.67 0 1.48-0.56 1.67-4.88 1.67-2.68 0-5.12-0.25-5.43-0.55z" fill="#000"/>
<path d="m2036 1143.8v40.45h127.24v-40.45h-127.24z" fill="#707070"/>
<path d="m2149.1 1212v-92.83l46.42 46.42-46.42 46.41z" fill="#707070"/>
<path d="m549.92 820.5h-483.92c-5.5228 0-10 4.477-10 10v253.19c0 5.53 4.4772 10 10 10h483.92c5.523 0 10-4.47 10-10v-253.19c0-5.523-4.477-10-10-10z" fill="#1377ED"/>
<path d="m182.59 938.69v5.292h-13.734v38.367h-6.111v-38.367h-13.734v-5.292h33.579zm11.934 43.659h-5.859v-32.76h5.859v32.76zm-2.961-38.682c-1.05 0-1.953-0.336-2.709-1.008-0.714-0.714-1.071-1.659-1.071-2.835s0.357-2.1 1.071-2.772c0.756-0.714 1.659-1.071 2.709-1.071s1.932 0.357 2.646 1.071c0.756 0.672 1.134 1.596 1.134 2.772s-0.378 2.121-1.134 2.835c-0.714 0.672-1.596 1.008-2.646 1.008zm45.734-4.977c-1.302 1.428-2.772 3.024-4.41 4.788-1.638 1.722-3.36 3.507-5.166 5.355-1.764 1.806-3.528 3.591-5.292 5.355s-3.423 3.402-4.977 4.914c1.806 1.26 3.717 2.814 5.733 4.662s3.99 3.822 5.922 5.922 3.738 4.242 5.418 6.426c1.722 2.184 3.15 4.263 4.284 6.237h-7.182c-1.26-1.974-2.709-3.948-4.347-5.922-1.638-2.016-3.381-3.927-5.229-5.733-1.806-1.848-3.654-3.549-5.544-5.103-1.848-1.554-3.654-2.877-5.418-3.969v20.727h-6.111v-43.659h6.111v19.278c1.47-1.386 3.087-2.94 4.851-4.662 1.764-1.764 3.507-3.528 5.229-5.292s3.339-3.444 4.851-5.04c1.554-1.638 2.856-3.066 3.906-4.284h7.371zm43.812 0c-1.596 4.62-3.129 8.904-4.599 12.852-1.428 3.906-2.835 7.623-4.221 11.151s-2.772 6.909-4.158 10.143c-1.344 3.192-2.73 6.363-4.158 9.513h-5.733c-1.428-3.15-2.835-6.321-4.221-9.513-1.344-3.234-2.73-6.615-4.158-10.143-1.386-3.528-2.814-7.245-4.284-11.151-1.47-3.948-2.982-8.232-4.536-12.852h6.741c2.268 6.636 4.494 13.02 6.678 19.152s4.431 11.886 6.741 17.262c2.31-5.334 4.557-11.067 6.741-17.199 2.184-6.174 4.389-12.579 6.615-19.215h6.552zm27.89 39.438c2.394 0 4.158-0.315 5.292-0.945 1.176-0.63 1.764-1.638 1.764-3.024 0-1.428-0.567-2.562-1.701-3.402s-3.003-1.785-5.607-2.835c-1.26-0.504-2.478-1.008-3.654-1.512-1.134-0.546-2.121-1.176-2.961-1.89s-1.512-1.575-2.016-2.583-0.756-2.247-0.756-3.717c0-2.898 1.071-5.187 3.213-6.867 2.142-1.722 5.061-2.583 8.757-2.583 0.924 0 1.848 0.063 2.772 0.189 0.924 0.084 1.785 0.21 2.583 0.378 0.798 0.126 1.491 0.273 2.079 0.441 0.63 0.168 1.113 0.315 1.449 0.441l-1.071 5.04c-0.63-0.336-1.617-0.672-2.961-1.008-1.344-0.378-2.961-0.567-4.851-0.567-1.638 0-3.066 0.336-4.284 1.008-1.218 0.63-1.827 1.638-1.827 3.024 0 0.714 0.126 1.344 0.378 1.89 0.294 0.546 0.714 1.05 1.26 1.512 0.588 0.42 1.302 0.819 2.142 1.197s1.848 0.777 3.024 1.197c1.554 0.588 2.94 1.176 4.158 1.764 1.218 0.546 2.247 1.197 3.087 1.953 0.882 0.756 1.554 1.68 2.016 2.772 0.462 1.05 0.693 2.352 0.693 3.906 0 3.024-1.134 5.313-3.402 6.867-2.226 1.554-5.418 2.331-9.576 2.331-2.898 0-5.166-0.252-6.804-0.756-1.638-0.462-2.751-0.819-3.339-1.071l1.071-5.04c0.672 0.252 1.743 0.63 3.213 1.134s3.423 0.756 5.859 0.756zm18.666-12.096c0-2.898 0.42-5.418 1.26-7.56 0.84-2.184 1.953-3.99 3.339-5.418s2.982-2.499 4.788-3.213 3.654-1.071 5.544-1.071c4.41 0 7.791 1.386 10.143 4.158 2.352 2.73 3.528 6.909 3.528 12.537v1.008c0 0.378-0.021 0.735-0.063 1.071h-22.428c0.252 3.402 1.239 5.985 2.961 7.749s4.41 2.646 8.064 2.646c2.058 0 3.78-0.168 5.166-0.504 1.428-0.378 2.499-0.735 3.213-1.071l0.819 4.914c-0.714 0.378-1.974 0.777-3.78 1.197-1.764 0.42-3.78 0.63-6.048 0.63-2.856 0-5.334-0.42-7.434-1.26-2.058-0.882-3.759-2.079-5.103-3.591s-2.352-3.297-3.024-5.355c-0.63-2.1-0.945-4.389-0.945-6.867zm22.491-3.213c0.042-2.646-0.63-4.809-2.016-6.489-1.344-1.722-3.213-2.583-5.607-2.583-1.344 0-2.541 0.273-3.591 0.819-1.008 0.504-1.869 1.176-2.583 2.016s-1.281 1.806-1.701 2.898c-0.378 1.092-0.63 2.205-0.756 3.339h16.254zm26.624-13.923c0.504 0 1.071 0.042 1.701 0.126 0.672 0.042 1.323 0.126 1.953 0.252 0.63 0.084 1.197 0.189 1.701 0.315 0.546 0.084 0.945 0.168 1.197 0.252l-1.008 5.103c-0.462-0.168-1.239-0.357-2.331-0.567-1.05-0.252-2.415-0.378-4.095-0.378-1.092 0-2.184 0.126-3.276 0.378-1.05 0.21-1.743 0.357-2.079 0.441v27.531h-5.859v-31.374c1.386-0.504 3.108-0.966 5.166-1.386 2.058-0.462 4.368-0.693 6.93-0.693zm39.137 0.693c-1.638 6.132-3.57 12.012-5.796 17.64-2.184 5.628-4.305 10.668-6.363 15.12h-5.292c-2.058-4.452-4.2-9.492-6.426-15.12-2.184-5.628-4.095-11.508-5.733-17.64h6.3c0.504 2.058 1.092 4.263 1.764 6.615 0.714 2.31 1.449 4.62 2.205 6.93 0.798 2.268 1.596 4.473 2.394 6.615s1.554 4.053 2.268 5.733c0.714-1.68 1.47-3.591 2.268-5.733s1.575-4.347 2.331-6.615c0.798-2.31 1.533-4.62 2.205-6.93 0.714-2.352 1.323-4.557 1.827-6.615h6.048zm3.357 16.443c0-2.898 0.42-5.418 1.26-7.56 0.84-2.184 1.953-3.99 3.339-5.418s2.982-2.499 4.788-3.213 3.654-1.071 5.544-1.071c4.41 0 7.791 1.386 10.143 4.158 2.352 2.73 3.528 6.909 3.528 12.537v1.008c0 0.378-0.021 0.735-0.063 1.071h-22.428c0.252 3.402 1.239 5.985 2.961 7.749s4.41 2.646 8.064 2.646c2.058 0 3.78-0.168 5.166-0.504 1.428-0.378 2.499-0.735 3.213-1.071l0.819 4.914c-0.714 0.378-1.974 0.777-3.78 1.197-1.764 0.42-3.78 0.63-6.048 0.63-2.856 0-5.334-0.42-7.434-1.26-2.058-0.882-3.759-2.079-5.103-3.591s-2.352-3.297-3.024-5.355c-0.63-2.1-0.945-4.389-0.945-6.867zm22.491-3.213c0.042-2.646-0.63-4.809-2.016-6.489-1.344-1.722-3.213-2.583-5.607-2.583-1.344 0-2.541 0.273-3.591 0.819-1.008 0.504-1.869 1.176-2.583 2.016s-1.281 1.806-1.701 2.898c-0.378 1.092-0.63 2.205-0.756 3.339h16.254zm26.623-13.923c0.504 0 1.071 0.042 1.701 0.126 0.672 0.042 1.323 0.126 1.953 0.252 0.63 0.084 1.197 0.189 1.701 0.315 0.546 0.084 0.945 0.168 1.197 0.252l-1.008 5.103c-0.462-0.168-1.239-0.357-2.331-0.567-1.05-0.252-2.415-0.378-4.095-0.378-1.092 0-2.184 0.126-3.276 0.378-1.05 0.21-1.743 0.357-2.079 0.441v27.531h-5.859v-31.374c1.386-0.504 3.108-0.966 5.166-1.386 2.058-0.462 4.368-0.693 6.93-0.693z" fill="#fff"/>
<path d="m547.92 1172h-483.92c-5.5228 0-10 4.48-10 10v253.2c0 5.52 4.4772 10 10 10h483.92c5.523 0 10-4.48 10-10v-253.2c0-5.52-4.477-10-10-10z" fill="#1377ED"/>
<path d="m179.59 1288.3v5.29h-13.734v38.37h-6.111v-38.37h-13.734v-5.29h33.579zm11.934 43.66h-5.859v-32.76h5.859v32.76zm-2.961-38.68c-1.05 0-1.953-0.34-2.709-1.01-0.714-0.71-1.071-1.66-1.071-2.84 0-1.17 0.357-2.1 1.071-2.77 0.756-0.71 1.659-1.07 2.709-1.07s1.932 0.36 2.646 1.07c0.756 0.67 1.134 1.6 1.134 2.77 0 1.18-0.378 2.13-1.134 2.84-0.714 0.67-1.596 1.01-2.646 1.01zm45.734-4.98c-1.302 1.43-2.772 3.02-4.41 4.79-1.638 1.72-3.36 3.51-5.166 5.35-1.764 1.81-3.528 3.59-5.292 5.36-1.764 1.76-3.423 3.4-4.977 4.91 1.806 1.26 3.717 2.82 5.733 4.66 2.016 1.85 3.99 3.83 5.922 5.93s3.738 4.24 5.418 6.42c1.722 2.19 3.15 4.27 4.284 6.24h-7.182c-1.26-1.97-2.709-3.95-4.347-5.92-1.638-2.02-3.381-3.93-5.229-5.74-1.806-1.84-3.654-3.54-5.544-5.1-1.848-1.55-3.654-2.88-5.418-3.97v20.73h-6.111v-43.66h6.111v19.28c1.47-1.39 3.087-2.94 4.851-4.66 1.764-1.77 3.507-3.53 5.229-5.3 1.722-1.76 3.339-3.44 4.851-5.04 1.554-1.63 2.856-3.06 3.906-4.28h7.371zm43.812 0c-1.596 4.62-3.129 8.9-4.599 12.85-1.428 3.91-2.835 7.63-4.221 11.15-1.386 3.53-2.772 6.91-4.158 10.15-1.344 3.19-2.73 6.36-4.158 9.51h-5.733c-1.428-3.15-2.835-6.32-4.221-9.51-1.344-3.24-2.73-6.62-4.158-10.15-1.386-3.52-2.814-7.24-4.284-11.15-1.47-3.95-2.982-8.23-4.536-12.85h6.741c2.268 6.64 4.494 13.02 6.678 19.15s4.431 11.89 6.741 17.26c2.31-5.33 4.557-11.06 6.741-17.19 2.184-6.18 4.389-12.58 6.615-19.22h6.552zm27.89 39.44c2.394 0 4.158-0.32 5.292-0.95 1.176-0.63 1.764-1.63 1.764-3.02 0-1.43-0.567-2.56-1.701-3.4s-3.003-1.79-5.607-2.84c-1.26-0.5-2.478-1.01-3.654-1.51-1.134-0.55-2.121-1.18-2.961-1.89s-1.512-1.57-2.016-2.58-0.756-2.25-0.756-3.72c0-2.9 1.071-5.19 3.213-6.87 2.142-1.72 5.061-2.58 8.757-2.58 0.924 0 1.848 0.06 2.772 0.19 0.924 0.08 1.785 0.21 2.583 0.38 0.798 0.12 1.491 0.27 2.079 0.44 0.63 0.17 1.113 0.31 1.449 0.44l-1.071 5.04c-0.63-0.34-1.617-0.67-2.961-1.01-1.344-0.38-2.961-0.57-4.851-0.57-1.638 0-3.066 0.34-4.284 1.01-1.218 0.63-1.827 1.64-1.827 3.03 0 0.71 0.126 1.34 0.378 1.89 0.294 0.54 0.714 1.05 1.26 1.51 0.588 0.42 1.302 0.82 2.142 1.2 0.84 0.37 1.848 0.77 3.024 1.19 1.554 0.59 2.94 1.18 4.158 1.77 1.218 0.54 2.247 1.19 3.087 1.95 0.882 0.76 1.554 1.68 2.016 2.77 0.462 1.05 0.693 2.35 0.693 3.91 0 3.02-1.134 5.31-3.402 6.86-2.226 1.56-5.418 2.34-9.576 2.34-2.898 0-5.166-0.26-6.804-0.76-1.638-0.46-2.751-0.82-3.339-1.07l1.071-5.04c0.672 0.25 1.743 0.63 3.213 1.13 1.47 0.51 3.423 0.76 5.859 0.76zm18.666-12.1c0-2.9 0.42-5.42 1.26-7.56 0.84-2.18 1.953-3.99 3.339-5.42 1.386-1.42 2.982-2.49 4.788-3.21 1.806-0.71 3.654-1.07 5.544-1.07 4.41 0 7.791 1.39 10.143 4.16 2.352 2.73 3.528 6.91 3.528 12.54v1c0 0.38-0.021 0.74-0.063 1.07h-22.428c0.252 3.41 1.239 5.99 2.961 7.75 1.722 1.77 4.41 2.65 8.064 2.65 2.058 0 3.78-0.17 5.166-0.5 1.428-0.38 2.499-0.74 3.213-1.08l0.819 4.92c-0.714 0.38-1.974 0.78-3.78 1.2-1.764 0.42-3.78 0.63-6.048 0.63-2.856 0-5.334-0.42-7.434-1.26-2.058-0.89-3.759-2.08-5.103-3.6-1.344-1.51-2.352-3.29-3.024-5.35-0.63-2.1-0.945-4.39-0.945-6.87zm22.491-3.21c0.042-2.65-0.63-4.81-2.016-6.49-1.344-1.72-3.213-2.58-5.607-2.58-1.344 0-2.541 0.27-3.591 0.82-1.008 0.5-1.869 1.17-2.583 2.01s-1.281 1.81-1.701 2.9c-0.378 1.09-0.63 2.21-0.756 3.34h16.254zm26.624-13.92c0.504 0 1.071 0.04 1.701 0.12 0.672 0.04 1.323 0.13 1.953 0.25 0.63 0.09 1.197 0.19 1.701 0.32 0.546 0.08 0.945 0.17 1.197 0.25l-1.008 5.1c-0.462-0.16-1.239-0.35-2.331-0.56-1.05-0.25-2.415-0.38-4.095-0.38-1.092 0-2.184 0.13-3.276 0.38-1.05 0.21-1.743 0.35-2.079 0.44v27.53h-5.859v-31.37c1.386-0.51 3.108-0.97 5.166-1.39 2.058-0.46 4.368-0.69 6.93-0.69zm39.137 0.69c-1.638 6.13-3.57 12.01-5.796 17.64-2.184 5.63-4.305 10.67-6.363 15.12h-5.292c-2.058-4.45-4.2-9.49-6.426-15.12-2.184-5.63-4.095-11.51-5.733-17.64h6.3c0.504 2.06 1.092 4.26 1.764 6.61 0.714 2.31 1.449 4.62 2.205 6.93 0.798 2.27 1.596 4.48 2.394 6.62s1.554 4.05 2.268 5.73c0.714-1.68 1.47-3.59 2.268-5.73s1.575-4.35 2.331-6.62c0.798-2.31 1.533-4.62 2.205-6.93 0.714-2.35 1.323-4.55 1.827-6.61h6.048zm3.357 16.44c0-2.9 0.42-5.42 1.26-7.56 0.84-2.18 1.953-3.99 3.339-5.42 1.386-1.42 2.982-2.49 4.788-3.21 1.806-0.71 3.654-1.07 5.544-1.07 4.41 0 7.791 1.39 10.143 4.16 2.352 2.73 3.528 6.91 3.528 12.54v1c0 0.38-0.021 0.74-0.063 1.07h-22.428c0.252 3.41 1.239 5.99 2.961 7.75 1.722 1.77 4.41 2.65 8.064 2.65 2.058 0 3.78-0.17 5.166-0.5 1.428-0.38 2.499-0.74 3.213-1.08l0.819 4.92c-0.714 0.38-1.974 0.78-3.78 1.2-1.764 0.42-3.78 0.63-6.048 0.63-2.856 0-5.334-0.42-7.434-1.26-2.058-0.89-3.759-2.08-5.103-3.6-1.344-1.51-2.352-3.29-3.024-5.35-0.63-2.1-0.945-4.39-0.945-6.87zm22.491-3.21c0.042-2.65-0.63-4.81-2.016-6.49-1.344-1.72-3.213-2.58-5.607-2.58-1.344 0-2.541 0.27-3.591 0.82-1.008 0.5-1.869 1.17-2.583 2.01s-1.281 1.81-1.701 2.9c-0.378 1.09-0.63 2.21-0.756 3.34h16.254zm26.623-13.92c0.504 0 1.071 0.04 1.701 0.12 0.672 0.04 1.323 0.13 1.953 0.25 0.63 0.09 1.197 0.19 1.701 0.32 0.546 0.08 0.945 0.17 1.197 0.25l-1.008 5.1c-0.462-0.16-1.239-0.35-2.331-0.56-1.05-0.25-2.415-0.38-4.095-0.38-1.092 0-2.184 0.13-3.276 0.38-1.05 0.21-1.743 0.35-2.079 0.44v27.53h-5.859v-31.37c1.386-0.51 3.108-0.97 5.166-1.39 2.058-0.46 4.368-0.69 6.93-0.69z" fill="#fff"/>
<path d="m553.92 471h-483.92c-5.5228 0-10 4.477-10 10v253.2c0 5.523 4.4772 10 10 10h483.92c5.523 0 10-4.477 10-10v-253.2c0-5.523-4.477-10-10-10z" fill="#1377ED"/>
<path d="m182.59 584.34v5.292h-13.734v38.367h-6.111v-38.367h-13.734v-5.292h33.579zm11.934 43.659h-5.859v-32.76h5.859v32.76zm-2.961-38.682c-1.05 0-1.953-0.336-2.709-1.008-0.714-0.714-1.071-1.659-1.071-2.835s0.357-2.1 1.071-2.772c0.756-0.714 1.659-1.071 2.709-1.071s1.932 0.357 2.646 1.071c0.756 0.672 1.134 1.596 1.134 2.772s-0.378 2.121-1.134 2.835c-0.714 0.672-1.596 1.008-2.646 1.008zm45.734-4.977c-1.302 1.428-2.772 3.024-4.41 4.788-1.638 1.722-3.36 3.507-5.166 5.355-1.764 1.806-3.528 3.591-5.292 5.355s-3.423 3.402-4.977 4.914c1.806 1.26 3.717 2.814 5.733 4.662s3.99 3.822 5.922 5.922 3.738 4.242 5.418 6.426c1.722 2.184 3.15 4.263 4.284 6.237h-7.182c-1.26-1.974-2.709-3.948-4.347-5.922-1.638-2.016-3.381-3.927-5.229-5.733-1.806-1.848-3.654-3.549-5.544-5.103-1.848-1.554-3.654-2.877-5.418-3.969v20.727h-6.111v-43.659h6.111v19.278c1.47-1.386 3.087-2.94 4.851-4.662 1.764-1.764 3.507-3.528 5.229-5.292s3.339-3.444 4.851-5.04c1.554-1.638 2.856-3.066 3.906-4.284h7.371zm43.812 0c-1.596 4.62-3.129 8.904-4.599 12.852-1.428 3.906-2.835 7.623-4.221 11.151s-2.772 6.909-4.158 10.143c-1.344 3.192-2.73 6.363-4.158 9.513h-5.733c-1.428-3.15-2.835-6.321-4.221-9.513-1.344-3.234-2.73-6.615-4.158-10.143-1.386-3.528-2.814-7.245-4.284-11.151-1.47-3.948-2.982-8.232-4.536-12.852h6.741c2.268 6.636 4.494 13.02 6.678 19.152s4.431 11.886 6.741 17.262c2.31-5.334 4.557-11.067 6.741-17.199 2.184-6.174 4.389-12.579 6.615-19.215h6.552zm27.89 39.438c2.394 0 4.158-0.315 5.292-0.945 1.176-0.63 1.764-1.638 1.764-3.024 0-1.428-0.567-2.562-1.701-3.402s-3.003-1.785-5.607-2.835c-1.26-0.504-2.478-1.008-3.654-1.512-1.134-0.546-2.121-1.176-2.961-1.89s-1.512-1.575-2.016-2.583-0.756-2.247-0.756-3.717c0-2.898 1.071-5.187 3.213-6.867 2.142-1.722 5.061-2.583 8.757-2.583 0.924 0 1.848 0.063 2.772 0.189 0.924 0.084 1.785 0.21 2.583 0.378 0.798 0.126 1.491 0.273 2.079 0.441 0.63 0.168 1.113 0.315 1.449 0.441l-1.071 5.04c-0.63-0.336-1.617-0.672-2.961-1.008-1.344-0.378-2.961-0.567-4.851-0.567-1.638 0-3.066 0.336-4.284 1.008-1.218 0.63-1.827 1.638-1.827 3.024 0 0.714 0.126 1.344 0.378 1.89 0.294 0.546 0.714 1.05 1.26 1.512 0.588 0.42 1.302 0.819 2.142 1.197s1.848 0.777 3.024 1.197c1.554 0.588 2.94 1.176 4.158 1.764 1.218 0.546 2.247 1.197 3.087 1.953 0.882 0.756 1.554 1.68 2.016 2.772 0.462 1.05 0.693 2.352 0.693 3.906 0 3.024-1.134 5.313-3.402 6.867-2.226 1.554-5.418 2.331-9.576 2.331-2.898 0-5.166-0.252-6.804-0.756-1.638-0.462-2.751-0.819-3.339-1.071l1.071-5.04c0.672 0.252 1.743 0.63 3.213 1.134s3.423 0.756 5.859 0.756zm18.666-12.096c0-2.898 0.42-5.418 1.26-7.56 0.84-2.184 1.953-3.99 3.339-5.418s2.982-2.499 4.788-3.213 3.654-1.071 5.544-1.071c4.41 0 7.791 1.386 10.143 4.158 2.352 2.73 3.528 6.909 3.528 12.537v1.008c0 0.378-0.021 0.735-0.063 1.071h-22.428c0.252 3.402 1.239 5.985 2.961 7.749s4.41 2.646 8.064 2.646c2.058 0 3.78-0.168 5.166-0.504 1.428-0.378 2.499-0.735 3.213-1.071l0.819 4.914c-0.714 0.378-1.974 0.777-3.78 1.197-1.764 0.42-3.78 0.63-6.048 0.63-2.856 0-5.334-0.42-7.434-1.26-2.058-0.882-3.759-2.079-5.103-3.591s-2.352-3.297-3.024-5.355c-0.63-2.1-0.945-4.389-0.945-6.867zm22.491-3.213c0.042-2.646-0.63-4.809-2.016-6.489-1.344-1.722-3.213-2.583-5.607-2.583-1.344 0-2.541 0.273-3.591 0.819-1.008 0.504-1.869 1.176-2.583 2.016s-1.281 1.806-1.701 2.898c-0.378 1.092-0.63 2.205-0.756 3.339h16.254zm26.624-13.923c0.504 0 1.071 0.042 1.701 0.126 0.672 0.042 1.323 0.126 1.953 0.252 0.63 0.084 1.197 0.189 1.701 0.315 0.546 0.084 0.945 0.168 1.197 0.252l-1.008 5.103c-0.462-0.168-1.239-0.357-2.331-0.567-1.05-0.252-2.415-0.378-4.095-0.378-1.092 0-2.184 0.126-3.276 0.378-1.05 0.21-1.743 0.357-2.079 0.441v27.531h-5.859v-31.374c1.386-0.504 3.108-0.966 5.166-1.386 2.058-0.462 4.368-0.693 6.93-0.693zm39.137 0.693c-1.638 6.132-3.57 12.012-5.796 17.64-2.184 5.628-4.305 10.668-6.363 15.12h-5.292c-2.058-4.452-4.2-9.492-6.426-15.12-2.184-5.628-4.095-11.508-5.733-17.64h6.3c0.504 2.058 1.092 4.263 1.764 6.615 0.714 2.31 1.449 4.62 2.205 6.93 0.798 2.268 1.596 4.473 2.394 6.615s1.554 4.053 2.268 5.733c0.714-1.68 1.47-3.591 2.268-5.733s1.575-4.347 2.331-6.615c0.798-2.31 1.533-4.62 2.205-6.93 0.714-2.352 1.323-4.557 1.827-6.615h6.048zm3.357 16.443c0-2.898 0.42-5.418 1.26-7.56 0.84-2.184 1.953-3.99 3.339-5.418s2.982-2.499 4.788-3.213 3.654-1.071 5.544-1.071c4.41 0 7.791 1.386 10.143 4.158 2.352 2.73 3.528 6.909 3.528 12.537v1.008c0 0.378-0.021 0.735-0.063 1.071h-22.428c0.252 3.402 1.239 5.985 2.961 7.749s4.41 2.646 8.064 2.646c2.058 0 3.78-0.168 5.166-0.504 1.428-0.378 2.499-0.735 3.213-1.071l0.819 4.914c-0.714 0.378-1.974 0.777-3.78 1.197-1.764 0.42-3.78 0.63-6.048 0.63-2.856 0-5.334-0.42-7.434-1.26-2.058-0.882-3.759-2.079-5.103-3.591s-2.352-3.297-3.024-5.355c-0.63-2.1-0.945-4.389-0.945-6.867zm22.491-3.213c0.042-2.646-0.63-4.809-2.016-6.489-1.344-1.722-3.213-2.583-5.607-2.583-1.344 0-2.541 0.273-3.591 0.819-1.008 0.504-1.869 1.176-2.583 2.016s-1.281 1.806-1.701 2.898c-0.378 1.092-0.63 2.205-0.756 3.339h16.254zm26.623-13.923c0.504 0 1.071 0.042 1.701 0.126 0.672 0.042 1.323 0.126 1.953 0.252 0.63 0.084 1.197 0.189 1.701 0.315 0.546 0.084 0.945 0.168 1.197 0.252l-1.008 5.103c-0.462-0.168-1.239-0.357-2.331-0.567-1.05-0.252-2.415-0.378-4.095-0.378-1.092 0-2.184 0.126-3.276 0.378-1.05 0.21-1.743 0.357-2.079 0.441v27.531h-5.859v-31.374c1.386-0.504 3.108-0.966 5.166-1.386 2.058-0.462 4.368-0.693 6.93-0.693z" fill="#fff"/>
<path d="m729.21 37.061h-196.25c-5.523 0-10 4.4772-10 10v145.54c0 5.523 4.477 10 10 10h196.25c5.523 0 10-4.477 10-10v-145.54c0-5.5228-4.477-10-10-10z" fill="#EB5757"/>
<path d="m729.21 39.061h-196.25c-4.418 0-8 3.5818-8 8v145.54c0 4.418 3.582 8 8 8h196.25c4.418 0 8-3.582 8-8v-145.54c0-4.4182-3.582-8-8-8z" stroke="#fff" stroke-width="4"/>
<path d="m564.05 57.547c6.035 0 10.664 1.1573 13.888 3.472 3.265 2.2733 4.898 5.6833 4.898 10.23 0 2.48-0.455 4.6086-1.364 6.386-0.868 1.736-2.149 3.162-3.844 4.278-1.653 1.0746-3.679 1.86-6.076 2.356s-5.105 0.744-8.122 0.744h-4.774v15.934h-6.014v-42.346c1.695-0.4134 3.575-0.682 5.642-0.806 2.108-0.1654 4.03-0.248 5.766-0.248zm0.496 5.27c-2.563 0-4.526 0.062-5.89 0.186v16.864h4.526c2.067 0 3.927-0.124 5.58-0.372 1.653-0.2894 3.038-0.744 4.154-1.364 1.157-0.6614 2.046-1.55 2.666-2.666s0.93-2.542 0.93-4.278c0-1.6534-0.331-3.0174-0.992-4.092-0.62-1.0747-1.488-1.922-2.604-2.542-1.075-0.6614-2.335-1.116-3.782-1.364s-2.976-0.372-4.588-0.372zm61.095 16.616c0 3.72-0.579 6.9646-1.736 9.734-1.158 2.728-2.79 5.0013-4.898 6.82-2.108 1.7773-4.63 3.1206-7.564 4.0297-2.935 0.868-6.159 1.302-9.672 1.302-1.736 0-3.658-0.082-5.766-0.248-2.067-0.124-3.948-0.392-5.642-0.806v-41.664c1.694-0.4134 3.575-0.682 5.642-0.806 2.108-0.1654 4.03-0.248 5.766-0.248 3.513 0 6.737 0.4546 9.672 1.364 2.934 0.868 5.456 2.2113 7.564 4.03 2.108 1.7773 3.74 4.0506 4.898 6.82 1.157 2.728 1.736 5.952 1.736 9.672zm-23.374 16.616c5.704 0 9.961-1.4467 12.772-4.34 2.81-2.9347 4.216-7.0267 4.216-12.276 0-5.2494-1.406-9.3207-4.216-12.214-2.811-2.9347-7.068-4.402-12.772-4.402-1.695 0-3.018 0.0206-3.968 0.062-0.91 0.0413-1.55 0.0826-1.922 0.124v32.86c0.372 0.0413 1.012 0.0826 1.922 0.124 0.95 0.0413 2.273 0.062 3.968 0.062z" fill="#fff"/>
<path d="m771.57 72.357h-196.25c-5.523 0-10 4.4772-10 10v145.54c0 5.523 4.477 10 10 10h196.25c5.523 0 10-4.477 10-10v-145.54c0-5.5228-4.477-10-10-10z" fill="#EB5757"/>
<path d="m771.57 74.357h-196.25c-4.418 0-8 3.5818-8 8v145.54c0 4.418 3.582 8 8 8h196.25c4.418 0 8-3.582 8-8v-145.54c0-4.4182-3.582-8-8-8z" stroke="#fff" stroke-width="4"/>
<path d="m605.05 94.547c6.035 0 10.664 1.1573 13.888 3.472 3.265 2.2737 4.898 5.6837 4.898 10.23 0 2.48-0.455 4.609-1.364 6.386-0.868 1.736-2.149 3.162-3.844 4.278-1.653 1.075-3.679 1.86-6.076 2.356s-5.105 0.744-8.122 0.744h-4.774v15.934h-6.014v-42.346c1.695-0.4134 3.575-0.682 5.642-0.806 2.108-0.1654 4.03-0.248 5.766-0.248zm0.496 5.27c-2.563 0-4.526 0.062-5.89 0.1857v16.864h4.526c2.067 0 3.927-0.124 5.58-0.372 1.653-0.289 3.038-0.744 4.154-1.364 1.157-0.661 2.046-1.55 2.666-2.666s0.93-2.542 0.93-4.278c0-1.653-0.331-3.017-0.992-4.092-0.62-1.074-1.488-1.922-2.604-2.542-1.075-0.661-2.335-1.116-3.782-1.364-1.447-0.2477-2.976-0.3717-4.588-0.3717zm61.095 16.616c0 3.72-0.579 6.965-1.736 9.734-1.158 2.728-2.79 5.002-4.898 6.82-2.108 1.778-4.63 3.121-7.564 4.03-2.935 0.868-6.159 1.302-9.672 1.302-1.736 0-3.658-0.082-5.766-0.248-2.067-0.124-3.948-0.392-5.642-0.806v-41.664c1.694-0.4134 3.575-0.682 5.642-0.806 2.108-0.1654 4.03-0.248 5.766-0.248 3.513 0 6.737 0.4546 9.672 1.364 2.934 0.868 5.456 2.2113 7.564 4.03 2.108 1.7777 3.74 4.0507 4.898 6.8197 1.157 2.728 1.736 5.952 1.736 9.672zm-23.374 16.616c5.704 0 9.961-1.446 12.772-4.34 2.81-2.934 4.216-7.026 4.216-12.276 0-5.249-1.406-9.32-4.216-12.214-2.811-2.934-7.068-4.4017-12.772-4.4017-1.695 0-3.018 0.0206-3.968 0.062-0.91 0.0413-1.55 0.0826-1.922 0.1237v32.86c0.372 0.042 1.012 0.083 1.922 0.124 0.95 0.042 2.273 0.062 3.968 0.062z" fill="#fff"/>
<path d="m813.92 107.65h-196.25c-5.523 0-10 4.477-10 10v145.54c0 5.523 4.477 10 10 10h196.25c5.523 0 10-4.477 10-10v-145.54c0-5.523-4.477-10-10-10z" fill="#EB5757"/>
<path d="m813.92 109.65h-196.25c-4.418 0-8 3.582-8 8v145.54c0 4.418 3.582 8 8 8h196.25c4.418 0 8-3.582 8-8v-145.54c0-4.418-3.582-8-8-8z" stroke="#fff" stroke-width="4"/>
<path d="m285.33 101.47v40.451h157.25v-40.451h-157.25z" fill="#707070"/>
<path d="m428.42 169.68v-92.822l46.411 46.411-46.411 46.411z" fill="#707070"/>
<path d="M326 113H286V235.174H326V113Z" fill="#707070"/>
<path d="M260 234.688H352.822L306.411 273L260 234.688Z" fill="#707070"/>
<path d="m624.96 418.24h-621.92v1077.5h621.92v-1077.5z" stroke="#1377ED" stroke-dasharray="15 15" stroke-width="5"/>
<path d="m647.4 129.84c6.035 0 10.664 1.157 13.888 3.472 3.265 2.273 4.898 5.683 4.898 10.23 0 2.48-0.455 4.609-1.364 6.386-0.868 1.736-2.149 3.162-3.844 4.278-1.653 1.075-3.679 1.86-6.076 2.356s-5.105 0.744-8.122 0.744h-4.774v15.934h-6.014v-42.346c1.695-0.413 3.575-0.682 5.642-0.806 2.108-0.165 4.03-0.248 5.766-0.248zm0.496 5.27c-2.563 0-4.526 0.062-5.89 0.186v16.864h4.526c2.067 0 3.927-0.124 5.58-0.372 1.653-0.289 3.038-0.744 4.154-1.364 1.157-0.661 2.046-1.55 2.666-2.666s0.93-2.542 0.93-4.278c0-1.653-0.331-3.017-0.992-4.092-0.62-1.075-1.488-1.922-2.604-2.542-1.075-0.661-2.335-1.116-3.782-1.364s-2.976-0.372-4.588-0.372zm61.095 16.616c0 3.72-0.579 6.965-1.736 9.734-1.158 2.728-2.79 5.001-4.898 6.82-2.108 1.777-4.63 3.121-7.564 4.03-2.935 0.868-6.159 1.302-9.672 1.302-1.736 0-3.658-0.083-5.766-0.248-2.067-0.124-3.948-0.393-5.642-0.806v-41.664c1.694-0.413 3.575-0.682 5.642-0.806 2.108-0.165 4.03-0.248 5.766-0.248 3.513 0 6.737 0.455 9.672 1.364 2.934 0.868 5.456 2.211 7.564 4.03 2.108 1.777 3.74 4.051 4.898 6.82 1.157 2.728 1.736 5.952 1.736 9.672zm-23.374 16.616c5.704 0 9.961-1.447 12.772-4.34 2.81-2.935 4.216-7.027 4.216-12.276s-1.406-9.321-4.216-12.214c-2.811-2.935-7.068-4.402-12.772-4.402-1.695 0-3.018 0.021-3.968 0.062-0.91 0.041-1.55 0.083-1.922 0.124v32.86c0.372 0.041 1.012 0.083 1.922 0.124 0.95 0.041 2.273 0.062 3.968 0.062z" fill="#fff"/>
<path d="m3279.8 1372.6c0 3-0.47 5.62-1.4 7.85-0.93 2.2-2.25 4.03-3.95 5.5-1.7 1.43-3.73 2.52-6.1 3.25-2.37 0.7-4.97 1.05-7.8 1.05-1.4 0-2.95-0.07-4.65-0.2-1.67-0.1-3.18-0.32-4.55-0.65v-33.6c1.37-0.33 2.88-0.55 4.55-0.65 1.7-0.13 3.25-0.2 4.65-0.2 2.83 0 5.43 0.37 7.8 1.1 2.37 0.7 4.4 1.78 6.1 3.25 1.7 1.43 3.02 3.27 3.95 5.5 0.93 2.2 1.4 4.8 1.4 7.8zm-18.85 13.4c4.6 0 8.03-1.17 10.3-3.5 2.27-2.37 3.4-5.67 3.4-9.9s-1.13-7.52-3.4-9.85c-2.27-2.37-5.7-3.55-10.3-3.55-1.37 0-2.43 0.02-3.2 0.05-0.73 0.03-1.25 0.07-1.55 0.1v26.5c0.3 0.03 0.82 0.07 1.55 0.1 0.77 0.03 1.83 0.05 3.2 0.05zm48.7-9.05c0 2.07-0.3 3.93-0.9 5.6s-1.45 3.1-2.55 4.3c-1.07 1.2-2.35 2.13-3.85 2.8-1.5 0.63-3.14 0.95-4.9 0.95-1.77 0-3.4-0.32-4.9-0.95-1.5-0.67-2.8-1.6-3.9-2.8-1.07-1.2-1.9-2.63-2.5-4.3s-0.9-3.53-0.9-5.6c0-2.03 0.3-3.88 0.9-5.55 0.6-1.7 1.43-3.15 2.5-4.35 1.1-1.2 2.4-2.12 3.9-2.75 1.5-0.67 3.13-1 4.9-1 1.76 0 3.4 0.33 4.9 1 1.5 0.63 2.78 1.55 3.85 2.75 1.1 1.2 1.95 2.65 2.55 4.35 0.6 1.67 0.9 3.52 0.9 5.55zm-4.85 0c0-2.93-0.67-5.25-2-6.95-1.3-1.73-3.09-2.6-5.35-2.6-2.27 0-4.07 0.87-5.4 2.6-1.3 1.7-1.95 4.02-1.95 6.95s0.65 5.27 1.95 7c1.33 1.7 3.13 2.55 5.4 2.55 2.26 0 4.05-0.85 5.35-2.55 1.33-1.73 2-4.07 2-7zm32 13c-0.93-2.4-1.93-5.13-3-8.2-1.03-3.1-1.98-6.32-2.85-9.65-0.86 3.33-1.81 6.55-2.85 9.65-1.03 3.07-2.01 5.8-2.95 8.2h-4.05c-1.53-3.43-3.03-7.35-4.5-11.75-1.46-4.4-2.85-9.15-4.15-14.25h5c0.34 1.57 0.74 3.27 1.2 5.1 0.47 1.83 0.95 3.67 1.45 5.5 0.54 1.83 1.09 3.6 1.65 5.3 0.57 1.7 1.1 3.18 1.6 4.45 0.57-1.57 1.12-3.22 1.65-4.95 0.57-1.77 1.1-3.53 1.6-5.3 0.5-1.8 0.97-3.55 1.4-5.25 0.47-1.73 0.87-3.35 1.2-4.85h3.85c0.3 1.5 0.67 3.12 1.1 4.85 0.44 1.7 0.9 3.45 1.4 5.25 0.5 1.77 1.02 3.53 1.55 5.3 0.57 1.73 1.14 3.38 1.7 4.95 0.5-1.27 1.02-2.75 1.55-4.45 0.57-1.7 1.12-3.47 1.65-5.3 0.54-1.83 1.04-3.67 1.5-5.5 0.47-1.83 0.87-3.53 1.2-5.1h4.8c-1.3 5.1-2.68 9.85-4.15 14.25-1.46 4.4-2.96 8.32-4.5 11.75h-4.05zm17.62-25.25c1.07-0.27 2.48-0.55 4.25-0.85s3.8-0.45 6.1-0.45c2.07 0 3.78 0.3 5.15 0.9 1.37 0.57 2.45 1.38 3.25 2.45 0.83 1.03 1.42 2.28 1.75 3.75s0.5 3.08 0.5 4.85v14.6h-4.65v-13.6c0-1.6-0.12-2.97-0.35-4.1-0.2-1.13-0.55-2.05-1.05-2.75s-1.17-1.2-2-1.5c-0.83-0.33-1.87-0.5-3.1-0.5-0.5 0-1.02 0.02-1.55 0.05s-1.05 0.08-1.55 0.15c-0.47 0.03-0.9 0.08-1.3 0.15-0.37 0.07-0.63 0.12-0.8 0.15v21.95h-4.65v-25.25zm34.76 21.9c1.9 0 3.3-0.25 4.2-0.75 0.93-0.5 1.4-1.3 1.4-2.4 0-1.13-0.45-2.03-1.35-2.7s-2.38-1.42-4.45-2.25c-1-0.4-1.97-0.8-2.9-1.2-0.9-0.43-1.68-0.93-2.35-1.5s-1.2-1.25-1.6-2.05-0.6-1.78-0.6-2.95c0-2.3 0.85-4.12 2.55-5.45 1.7-1.37 4.02-2.05 6.95-2.05 0.73 0 1.47 0.05 2.2 0.15 0.73 0.07 1.42 0.17 2.05 0.3 0.63 0.1 1.18 0.22 1.65 0.35 0.5 0.13 0.88 0.25 1.15 0.35l-0.85 4c-0.5-0.27-1.28-0.53-2.35-0.8-1.07-0.3-2.35-0.45-3.85-0.45-1.3 0-2.43 0.27-3.4 0.8-0.97 0.5-1.45 1.3-1.45 2.4 0 0.57 0.1 1.07 0.3 1.5 0.23 0.43 0.57 0.83 1 1.2 0.47 0.33 1.03 0.65 1.7 0.95s1.47 0.62 2.4 0.95c1.23 0.47 2.33 0.93 3.3 1.4 0.97 0.43 1.78 0.95 2.45 1.55 0.7 0.6 1.23 1.33 1.6 2.2 0.37 0.83 0.55 1.87 0.55 3.1 0 2.4-0.9 4.22-2.7 5.45-1.77 1.23-4.3 1.85-7.6 1.85-2.3 0-4.1-0.2-5.4-0.6-1.3-0.37-2.18-0.65-2.65-0.85l0.85-4c0.53 0.2 1.38 0.5 2.55 0.9s2.72 0.6 4.65 0.6zm20.62-22.65h9.85v3.9h-9.85v12c0 1.3 0.1 2.38 0.3 3.25 0.2 0.83 0.5 1.5 0.9 2 0.4 0.47 0.9 0.8 1.5 1s1.3 0.3 2.1 0.3c1.4 0 2.51-0.15 3.35-0.45 0.86-0.33 1.46-0.57 1.8-0.7l0.9 3.85c-0.47 0.23-1.29 0.52-2.45 0.85-1.17 0.37-2.5 0.55-4 0.55-1.77 0-3.24-0.22-4.4-0.65-1.14-0.47-2.05-1.15-2.75-2.05s-1.2-2-1.5-3.3c-0.27-1.33-0.4-2.87-0.4-4.6v-23.2l4.65-0.8v8.05zm25.36-0.55c0.4 0 0.85 0.03 1.35 0.1 0.54 0.03 1.05 0.1 1.55 0.2 0.5 0.07 0.95 0.15 1.35 0.25 0.44 0.07 0.75 0.13 0.95 0.2l-0.8 4.05c-0.36-0.13-0.98-0.28-1.85-0.45-0.83-0.2-1.91-0.3-3.25-0.3-0.86 0-1.73 0.1-2.6 0.3-0.83 0.17-1.38 0.28-1.65 0.35v21.85h-4.65v-24.9c1.1-0.4 2.47-0.77 4.1-1.1 1.64-0.37 3.47-0.55 5.5-0.55zm8.24 13.6c0-2.3 0.33-4.3 1-6 0.67-1.73 1.55-3.17 2.65-4.3s2.37-1.98 3.8-2.55 2.9-0.85 4.4-0.85c3.5 0 6.18 1.1 8.05 3.3 1.87 2.17 2.8 5.48 2.8 9.95v0.8c0 0.3-0.02 0.58-0.05 0.85h-17.8c0.2 2.7 0.98 4.75 2.35 6.15s3.5 2.1 6.4 2.1c1.63 0 3-0.13 4.1-0.4 1.13-0.3 1.98-0.58 2.55-0.85l0.65 3.9c-0.57 0.3-1.57 0.62-3 0.95-1.4 0.33-3 0.5-4.8 0.5-2.27 0-4.23-0.33-5.9-1-1.63-0.7-2.98-1.65-4.05-2.85s-1.87-2.62-2.4-4.25c-0.5-1.67-0.75-3.48-0.75-5.45zm17.85-2.55c0.03-2.1-0.5-3.82-1.6-5.15-1.07-1.37-2.55-2.05-4.45-2.05-1.07 0-2.02 0.22-2.85 0.65-0.8 0.4-1.48 0.93-2.05 1.6s-1.02 1.43-1.35 2.3c-0.3 0.87-0.5 1.75-0.6 2.65h12.9zm20.33 12.15c1.1 0 2.07-0.02 2.9-0.05 0.87-0.07 1.58-0.17 2.15-0.3v-7.75c-0.33-0.17-0.88-0.3-1.65-0.4-0.73-0.13-1.63-0.2-2.7-0.2-0.7 0-1.45 0.05-2.25 0.15-0.77 0.1-1.48 0.32-2.15 0.65-0.63 0.3-1.17 0.73-1.6 1.3-0.43 0.53-0.65 1.25-0.65 2.15 0 1.67 0.53 2.83 1.6 3.5 1.07 0.63 2.52 0.95 4.35 0.95zm-0.4-23.3c1.87 0 3.43 0.25 4.7 0.75 1.3 0.47 2.33 1.15 3.1 2.05 0.8 0.87 1.37 1.92 1.7 3.15 0.33 1.2 0.5 2.53 0.5 4v16.25c-0.4 0.07-0.97 0.17-1.7 0.3-0.7 0.1-1.5 0.2-2.4 0.3s-1.88 0.18-2.95 0.25c-1.03 0.1-2.07 0.15-3.1 0.15-1.47 0-2.82-0.15-4.05-0.45s-2.3-0.77-3.2-1.4c-0.9-0.67-1.6-1.53-2.1-2.6s-0.75-2.35-0.75-3.85c0-1.43 0.28-2.67 0.85-3.7 0.6-1.03 1.4-1.87 2.4-2.5s2.17-1.1 3.5-1.4 2.73-0.45 4.2-0.45c0.47 0 0.95 0.03 1.45 0.1 0.5 0.03 0.97 0.1 1.4 0.2 0.47 0.07 0.87 0.13 1.2 0.2s0.57 0.12 0.7 0.15v-1.3c0-0.77-0.08-1.52-0.25-2.25-0.17-0.77-0.47-1.43-0.9-2-0.43-0.6-1.03-1.07-1.8-1.4-0.73-0.37-1.7-0.55-2.9-0.55-1.53 0-2.88 0.12-4.05 0.35-1.13 0.2-1.98 0.42-2.55 0.65l-0.55-3.85c0.6-0.27 1.6-0.52 3-0.75 1.4-0.27 2.92-0.4 4.55-0.4zm17.72 1.4c1.07-0.27 2.47-0.55 4.2-0.85 1.77-0.3 3.8-0.45 6.1-0.45 1.67 0 3.07 0.23 4.2 0.7 1.14 0.43 2.09 1.08 2.85 1.95 0.24-0.17 0.6-0.4 1.1-0.7s1.12-0.58 1.85-0.85c0.74-0.3 1.55-0.55 2.45-0.75 0.9-0.23 1.87-0.35 2.9-0.35 2 0 3.64 0.3 4.9 0.9 1.27 0.57 2.25 1.38 2.95 2.45 0.74 1.07 1.22 2.33 1.45 3.8 0.27 1.47 0.4 3.07 0.4 4.8v14.6h-4.65v-13.6c0-1.53-0.08-2.85-0.25-3.95-0.13-1.1-0.41-2.02-0.85-2.75-0.4-0.73-0.96-1.27-1.7-1.6-0.7-0.37-1.61-0.55-2.75-0.55-1.56 0-2.86 0.22-3.9 0.65-1 0.4-1.68 0.77-2.05 1.1 0.27 0.87 0.47 1.82 0.6 2.85 0.14 1.03 0.2 2.12 0.2 3.25v14.6h-4.65v-13.6c0-1.53-0.08-2.85-0.25-3.95-0.16-1.1-0.46-2.02-0.9-2.75-0.4-0.73-0.96-1.27-1.7-1.6-0.7-0.37-1.6-0.55-2.7-0.55-0.46 0-0.96 0.02-1.5 0.05-0.53 0.03-1.05 0.08-1.55 0.15-0.46 0.03-0.9 0.08-1.3 0.15s-0.66 0.12-0.8 0.15v21.95h-4.65v-25.25zm-193.62 47.25c4.86 0 8.6 0.93 11.2 2.8 2.63 1.83 3.95 4.58 3.95 8.25 0 2-0.37 3.72-1.1 5.15-0.7 1.4-1.74 2.55-3.1 3.45-1.34 0.87-2.97 1.5-4.9 1.9-1.94 0.4-4.12 0.6-6.55 0.6h-3.85v12.85h-4.85v-34.15c1.36-0.33 2.88-0.55 4.55-0.65 1.7-0.13 3.25-0.2 4.65-0.2zm0.4 4.25c-2.07 0-3.65 0.05-4.75 0.15v13.6h3.65c1.66 0 3.16-0.1 4.5-0.3 1.33-0.23 2.45-0.6 3.35-1.1 0.93-0.53 1.65-1.25 2.15-2.15s0.75-2.05 0.75-3.45c0-1.33-0.27-2.43-0.8-3.3-0.5-0.87-1.2-1.55-2.1-2.05-0.87-0.53-1.89-0.9-3.05-1.1-1.17-0.2-2.4-0.3-3.7-0.3zm28.32 31.25c-2.87-0.07-4.9-0.68-6.1-1.85s-1.8-2.98-1.8-5.45v-31.2l4.65-0.8v31.25c0 0.77 0.06 1.4 0.2 1.9 0.13 0.5 0.35 0.9 0.65 1.2s0.7 0.53 1.2 0.7c0.5 0.13 1.11 0.25 1.85 0.35l-0.65 3.9zm14.67-3.85c1.1 0 2.07-0.02 2.9-0.05 0.87-0.07 1.58-0.17 2.15-0.3v-7.75c-0.33-0.17-0.88-0.3-1.65-0.4-0.73-0.13-1.63-0.2-2.7-0.2-0.7 0-1.45 0.05-2.25 0.15-0.77 0.1-1.48 0.32-2.15 0.65-0.63 0.3-1.17 0.73-1.6 1.3-0.43 0.53-0.65 1.25-0.65 2.15 0 1.67 0.53 2.83 1.6 3.5 1.07 0.63 2.52 0.95 4.35 0.95zm-0.4-23.3c1.87 0 3.43 0.25 4.7 0.75 1.3 0.47 2.33 1.15 3.1 2.05 0.8 0.87 1.37 1.92 1.7 3.15 0.33 1.2 0.5 2.53 0.5 4v16.25c-0.4 0.07-0.97 0.17-1.7 0.3-0.7 0.1-1.5 0.2-2.4 0.3s-1.88 0.18-2.95 0.25c-1.03 0.1-2.07 0.15-3.1 0.15-1.47 0-2.82-0.15-4.05-0.45s-2.3-0.77-3.2-1.4c-0.9-0.67-1.6-1.53-2.1-2.6s-0.75-2.35-0.75-3.85c0-1.43 0.28-2.67 0.85-3.7 0.6-1.03 1.4-1.87 2.4-2.5s2.17-1.1 3.5-1.4 2.73-0.45 4.2-0.45c0.47 0 0.95 0.03 1.45 0.1 0.5 0.03 0.97 0.1 1.4 0.2 0.47 0.07 0.87 0.13 1.2 0.2s0.57 0.12 0.7 0.15v-1.3c0-0.77-0.08-1.52-0.25-2.25-0.17-0.77-0.47-1.43-0.9-2-0.43-0.6-1.03-1.07-1.8-1.4-0.73-0.37-1.7-0.55-2.9-0.55-1.53 0-2.88 0.12-4.05 0.35-1.13 0.2-1.98 0.42-2.55 0.65l-0.55-3.85c0.6-0.27 1.6-0.52 3-0.75 1.4-0.27 2.92-0.4 4.55-0.4zm22.07 0.65h9.85v3.9h-9.85v12c0 1.3 0.1 2.38 0.3 3.25 0.2 0.83 0.5 1.5 0.9 2 0.4 0.47 0.9 0.8 1.5 1s1.3 0.3 2.1 0.3c1.4 0 2.52-0.15 3.35-0.45 0.87-0.33 1.47-0.57 1.8-0.7l0.9 3.85c-0.46 0.23-1.28 0.52-2.45 0.85-1.16 0.37-2.5 0.55-4 0.55-1.76 0-3.23-0.22-4.4-0.65-1.13-0.47-2.05-1.15-2.75-2.05s-1.2-2-1.5-3.3c-0.26-1.33-0.4-2.87-0.4-4.6v-23.2l4.65-0.8v8.05zm25.92-12.8c1.37 0 2.53 0.1 3.5 0.3 1 0.2 1.7 0.38 2.1 0.55l-0.85 4c-0.4-0.2-0.97-0.38-1.7-0.55-0.73-0.2-1.63-0.3-2.7-0.3-2.17 0-3.68 0.6-4.55 1.8-0.87 1.17-1.3 2.75-1.3 4.75v2.25h10v3.9h-10v22.1h-4.65v-28.35c0-3.33 0.82-5.9 2.45-7.7 1.63-1.83 4.2-2.75 7.7-2.75zm32.09 25.8c0 2.07-0.3 3.93-0.9 5.6s-1.45 3.1-2.55 4.3c-1.07 1.2-2.35 2.13-3.85 2.8-1.5 0.63-3.14 0.95-4.9 0.95-1.77 0-3.4-0.32-4.9-0.95-1.5-0.67-2.8-1.6-3.9-2.8-1.07-1.2-1.9-2.63-2.5-4.3s-0.9-3.53-0.9-5.6c0-2.03 0.3-3.88 0.9-5.55 0.6-1.7 1.43-3.15 2.5-4.35 1.1-1.2 2.4-2.12 3.9-2.75 1.5-0.67 3.13-1 4.9-1 1.76 0 3.4 0.33 4.9 1 1.5 0.63 2.78 1.55 3.85 2.75 1.1 1.2 1.95 2.65 2.55 4.35 0.6 1.67 0.9 3.52 0.9 5.55zm-4.85 0c0-2.93-0.67-5.25-2-6.95-1.3-1.73-3.09-2.6-5.35-2.6-2.27 0-4.07 0.87-5.4 2.6-1.3 1.7-1.95 4.02-1.95 6.95s0.65 5.27 1.95 7c1.33 1.7 3.13 2.55 5.4 2.55 2.26 0 4.05-0.85 5.35-2.55 1.33-1.73 2-4.07 2-7zm20.99-13.55c0.4 0 0.85 0.03 1.35 0.1 0.53 0.03 1.05 0.1 1.55 0.2 0.5 0.07 0.95 0.15 1.35 0.25 0.43 0.07 0.75 0.13 0.95 0.2l-0.8 4.05c-0.37-0.13-0.98-0.28-1.85-0.45-0.83-0.2-1.92-0.3-3.25-0.3-0.87 0-1.73 0.1-2.6 0.3-0.83 0.17-1.38 0.28-1.65 0.35v21.85h-4.65v-24.9c1.1-0.4 2.47-0.77 4.1-1.1 1.63-0.37 3.47-0.55 5.5-0.55zm9.69 1.3c1.06-0.27 2.46-0.55 4.2-0.85 1.76-0.3 3.8-0.45 6.1-0.45 1.66 0 3.06 0.23 4.2 0.7 1.13 0.43 2.08 1.08 2.85 1.95 0.23-0.17 0.6-0.4 1.1-0.7s1.11-0.58 1.85-0.85c0.73-0.3 1.55-0.55 2.45-0.75 0.9-0.23 1.86-0.35 2.9-0.35 2 0 3.63 0.3 4.9 0.9 1.26 0.57 2.25 1.38 2.95 2.45 0.73 1.07 1.21 2.33 1.45 3.8 0.26 1.47 0.4 3.07 0.4 4.8v14.6h-4.65v-13.6c0-1.53-0.09-2.85-0.25-3.95-0.14-1.1-0.42-2.02-0.85-2.75-0.4-0.73-0.97-1.27-1.7-1.6-0.7-0.37-1.62-0.55-2.75-0.55-1.57 0-2.87 0.22-3.9 0.65-1 0.4-1.69 0.77-2.05 1.1 0.26 0.87 0.46 1.82 0.6 2.85 0.13 1.03 0.2 2.12 0.2 3.25v14.6h-4.65v-13.6c0-1.53-0.09-2.85-0.25-3.95-0.17-1.1-0.47-2.02-0.9-2.75-0.4-0.73-0.97-1.27-1.7-1.6-0.7-0.37-1.6-0.55-2.7-0.55-0.47 0-0.97 0.02-1.5 0.05-0.54 0.03-1.05 0.08-1.55 0.15-0.47 0.03-0.9 0.08-1.3 0.15s-0.67 0.12-0.8 0.15v21.95h-4.65v-25.25z" fill="#31478D"/>
<rect x="3465" y="1229" width="90" height="90" stroke="#31478D" stroke-width="10"/>
<rect x="3348" y="1229" width="90" height="90" stroke="#31478D" stroke-width="10"/>
<rect x="3231" y="1229" width="90" height="90" stroke="#31478D" stroke-width="10"/>
<rect x="3465" y="1112" width="90" height="90" stroke="#31478D" stroke-width="10"/>
<rect x="3348" y="1112" width="90" height="90" stroke="#31478D" stroke-width="10"/>
<rect x="3231" y="1112" width="90" height="90" stroke="#31478D" stroke-width="10"/>
<rect x="3465" y="995" width="90" height="90" stroke="#31478D" stroke-width="10"/>
<rect x="3348" y="995" width="90" height="90" stroke="#31478D" stroke-width="10"/>
<rect x="3231" y="995" width="90" height="90" stroke="#31478D" stroke-width="10"/>
<path d="m2906 1143.6v40.45h127.24v-40.45h-127.24z" fill="#707070"/>
<path d="m3019.1 1211.8v-92.82l46.41 46.41-46.41 46.41z" fill="#707070"/>
</svg>
