<?xml version="1.0" encoding="UTF-8" standalone="no"?><svg xmlns="http://www.w3.org/2000/svg" xmlns:xlink="http://www.w3.org/1999/xlink" contentScriptType="application/ecmascript" contentStyleType="text/css" height="386px" preserveAspectRatio="none" style="width:279px;height:386px;background:#FFFFFF;" version="1.1" viewBox="0 0 279 386" width="279px" zoomAndPan="magnify"><defs><filter height="300%" id="f1if3bckk9q1su" width="300%" x="-1" y="-1"><feGaussianBlur result="blurOut" stdDeviation="2.0"/><feColorMatrix in="blurOut" result="blurOut2" type="matrix" values="0 0 0 0 0 0 0 0 0 0 0 0 0 0 0 0 0 0 .4 0"/><feOffset dx="4.0" dy="4.0" in="blurOut2" result="blurOut3"/><feBlend in="SourceGraphic" in2="blurOut3" mode="normal"/></filter></defs><g><!--MD5=[e029e7788e4da8f06a31c832b2369a14]
class Mailbox--><rect codeLine="2" fill="#FEFECE" filter="url(#f1if3bckk9q1su)" height="86.4141" id="Mailbox" style="stroke:#A80036;stroke-width:1.5;" width="92" x="73" y="286.5"/><ellipse cx="93.85" cy="302.5" fill="#B4A7E5" rx="11" ry="11" style="stroke:#A80036;stroke-width:1.0;"/><path d="M94.8656,299.6563 L96.5219,299.6563 C96.9125,299.6563 97.1156,299.625 97.2719,299.5469 C97.5375,299.375 97.7094,299.0781 97.7094,298.7813 C97.7094,298.5 97.5688,298.25 97.3344,298.0781 C97.1469,297.9531 96.9906,297.9063 96.5219,297.9063 L91.3813,297.9063 C90.9438,297.9063 90.8031,297.9219 90.6313,298.0313 C90.3656,298.2031 90.1938,298.4844 90.1938,298.7813 C90.1938,299.0625 90.3344,299.3438 90.5688,299.5 C90.7563,299.625 90.9438,299.6563 91.3813,299.6563 L93.0375,299.6563 L93.0375,305.75 L91.3813,305.75 C90.9438,305.75 90.8031,305.7656 90.6313,305.875 C90.3656,306.0313 90.1938,306.3281 90.1938,306.6094 C90.1938,307.2188 90.6,307.5 91.3813,307.5 L96.5219,307.5 C97.3031,307.5 97.7094,307.2188 97.7094,306.6094 C97.7094,306.3438 97.5688,306.0938 97.3344,305.9219 C97.1469,305.7813 96.975,305.75 96.5219,305.75 L94.8656,305.75 L94.8656,299.6563 Z " fill="#000000"/><text fill="#000000" font-family="sans-serif" font-size="12" font-style="italic" lengthAdjust="spacing" textLength="47" x="109.15" y="306.6543">Mailbox</text><line style="stroke:#A80036;stroke-width:1.5;" x1="74" x2="164" y1="318.5" y2="318.5"/><line style="stroke:#A80036;stroke-width:1.5;" x1="74" x2="164" y1="326.5" y2="326.5"/><ellipse cx="84" cy="337.5" fill="#84BE84" rx="3" ry="3" style="stroke:#038048;stroke-width:1.0;"/><text fill="#000000" font-family="sans-serif" font-size="11" lengthAdjust="spacing" textLength="37" x="93" y="340.7104">Send()</text><ellipse cx="84" cy="350.3047" fill="#84BE84" rx="3" ry="3" style="stroke:#038048;stroke-width:1.0;"/><text fill="#000000" font-family="sans-serif" font-size="11" lengthAdjust="spacing" textLength="45" x="93" y="353.5151">SendB()</text><rect fill="#F24D5C" height="6" style="stroke:#C82930;stroke-width:1.0;" width="6" x="81" y="360.1094"/><text fill="#000000" font-family="sans-serif" font-size="11" lengthAdjust="spacing" textLength="66" x="93" y="366.3198">tryReceive()</text><!--MD5=[44201db48fb57df1a9c7f5b6b15426b0]
class Actor--><rect codeLine="8" fill="#FEFECE" filter="url(#f1if3bckk9q1su)" height="60.8047" id="Actor" style="stroke:#A80036;stroke-width:1.5;" width="65" x="200.75" y="299"/><ellipse cx="215.75" cy="315" fill="#B4A7E5" rx="11" ry="11" style="stroke:#A80036;stroke-width:1.0;"/><path d="M216.7656,312.1563 L218.4219,312.1563 C218.8125,312.1563 219.0156,312.125 219.1719,312.0469 C219.4375,311.875 219.6094,311.5781 219.6094,311.2813 C219.6094,311 219.4688,310.75 219.2344,310.5781 C219.0469,310.4531 218.8906,310.4063 218.4219,310.4063 L213.2813,310.4063 C212.8438,310.4063 212.7031,310.4219 212.5313,310.5313 C212.2656,310.7031 212.0938,310.9844 212.0938,311.2813 C212.0938,311.5625 212.2344,311.8438 212.4688,312 C212.6563,312.125 212.8438,312.1563 213.2813,312.1563 L214.9375,312.1563 L214.9375,318.25 L213.2813,318.25 C212.8438,318.25 212.7031,318.2656 212.5313,318.375 C212.2656,318.5313 212.0938,318.8281 212.0938,319.1094 C212.0938,319.7188 212.5,320 213.2813,320 L218.4219,320 C219.2031,320 219.6094,319.7188 219.6094,319.1094 C219.6094,318.8438 219.4688,318.5938 219.2344,318.4219 C219.0469,318.2813 218.875,318.25 218.4219,318.25 L216.7656,318.25 L216.7656,312.1563 Z " fill="#000000"/><text fill="#000000" font-family="sans-serif" font-size="12" font-style="italic" lengthAdjust="spacing" textLength="33" x="229.75" y="319.1543">Actor</text><line style="stroke:#A80036;stroke-width:1.5;" x1="201.75" x2="264.75" y1="331" y2="331"/><line style="stroke:#A80036;stroke-width:1.5;" x1="201.75" x2="264.75" y1="339" y2="339"/><ellipse cx="211.75" cy="350" fill="#84BE84" rx="3" ry="3" style="stroke:#038048;stroke-width:1.0;"/><text fill="#000000" font-family="sans-serif" font-size="11" lengthAdjust="spacing" textLength="28" x="220.75" y="353.2104">Poll()</text><!--MD5=[6a9dabe7ad7d91e46e95264c56fb8cca]
class proc--><rect codeLine="12" fill="#FEFECE" filter="url(#f1if3bckk9q1su)" height="73.6094" id="proc" style="stroke:#A80036;stroke-width:1.5;" width="68" x="140.5" y="149"/><ellipse cx="159.1" cy="165" fill="#ADD1B2" rx="11" ry="11" style="stroke:#A80036;stroke-width:1.0;"/><path d="M154.1,166.1563 C154.1,168.6563 156.2406,170.4688 159.1625,170.4688 C160.3969,170.4688 161.5688,170.1719 162.3188,169.6563 C162.9281,169.2344 163.2563,168.8125 163.2563,168.4063 C163.2563,167.9375 162.8344,167.5313 162.3344,167.5313 C162.1,167.5313 161.8813,167.6094 161.6781,167.8125 C161.2406,168.25 161.2406,168.25 161.0688,168.3438 C160.6156,168.5781 159.975,168.7188 159.2094,168.7188 C157.2094,168.7188 155.9281,167.7031 155.9281,166.125 L155.9281,165.0781 C155.9281,163.375 157.1469,162.1719 158.85,162.1719 C159.4281,162.1719 160.0063,162.3125 160.475,162.5625 C160.9438,162.8281 161.1156,163.0156 161.1781,163.375 C161.3031,164.0469 161.5531,164.2969 162.0844,164.2969 C162.3656,164.2969 162.6469,164.1563 162.8344,163.9375 C162.9594,163.7656 163.0063,163.5938 163.0063,163.1563 L163.0063,161.7969 C163.0063,161.375 162.9906,161.2344 162.8656,161.0625 C162.6938,160.8125 162.4125,160.6563 162.0844,160.6563 C161.7719,160.6563 161.5688,160.7656 161.35,161.0313 C160.1781,160.5313 159.7406,160.4219 158.7875,160.4219 C156.1156,160.4219 154.1,162.4375 154.1,165.0625 L154.1,166.1563 Z " fill="#000000"/><text fill="#000000" font-family="sans-serif" font-size="12" lengthAdjust="spacing" textLength="28" x="173.9" y="169.1543">proc</text><line style="stroke:#A80036;stroke-width:1.5;" x1="141.5" x2="207.5" y1="181" y2="181"/><rect fill="none" height="6" style="stroke:#C82930;stroke-width:1.0;" width="6" x="148.5" y="189"/><text fill="#000000" font-family="sans-serif" font-size="11" lengthAdjust="spacing" textLength="42" x="160.5" y="195.2104">Mailbox</text><rect fill="none" height="6" style="stroke:#C82930;stroke-width:1.0;" width="6" x="148.5" y="201.8047"/><text fill="#000000" font-family="sans-serif" font-size="11" lengthAdjust="spacing" textLength="29" x="160.5" y="208.0151">Actor</text><line style="stroke:#A80036;stroke-width:1.5;" x1="141.5" x2="207.5" y1="214.6094" y2="214.6094"/><!--MD5=[a3ca736ecbdf9770d2cfef15820cfe41]
class Router--><rect codeLine="17" fill="#FEFECE" filter="url(#f1if3bckk9q1su)" height="73.6094" id="Router" style="stroke:#A80036;stroke-width:1.5;" width="74" x="136.5" y="7"/><ellipse cx="151.5" cy="23" fill="#ADD1B2" rx="11" ry="11" style="stroke:#A80036;stroke-width:1.0;"/><path d="M146.5,24.1563 C146.5,26.6563 148.6406,28.4688 151.5625,28.4688 C152.7969,28.4688 153.9688,28.1719 154.7188,27.6563 C155.3281,27.2344 155.6563,26.8125 155.6563,26.4063 C155.6563,25.9375 155.2344,25.5313 154.7344,25.5313 C154.5,25.5313 154.2813,25.6094 154.0781,25.8125 C153.6406,26.25 153.6406,26.25 153.4688,26.3438 C153.0156,26.5781 152.375,26.7188 151.6094,26.7188 C149.6094,26.7188 148.3281,25.7031 148.3281,24.125 L148.3281,23.0781 C148.3281,21.375 149.5469,20.1719 151.25,20.1719 C151.8281,20.1719 152.4063,20.3125 152.875,20.5625 C153.3438,20.8281 153.5156,21.0156 153.5781,21.375 C153.7031,22.0469 153.9531,22.2969 154.4844,22.2969 C154.7656,22.2969 155.0469,22.1563 155.2344,21.9375 C155.3594,21.7656 155.4063,21.5938 155.4063,21.1563 L155.4063,19.7969 C155.4063,19.375 155.3906,19.2344 155.2656,19.0625 C155.0938,18.8125 154.8125,18.6563 154.4844,18.6563 C154.1719,18.6563 153.9688,18.7656 153.75,19.0313 C152.5781,18.5313 152.1406,18.4219 151.1875,18.4219 C148.5156,18.4219 146.5,20.4375 146.5,23.0625 L146.5,24.1563 Z " fill="#000000"/><text fill="#000000" font-family="sans-serif" font-size="12" lengthAdjust="spacing" textLength="42" x="165.5" y="27.1543">Router</text><line style="stroke:#A80036;stroke-width:1.5;" x1="137.5" x2="209.5" y1="39" y2="39"/><rect fill="none" height="6" style="stroke:#C82930;stroke-width:1.0;" width="6" x="144.5" y="47"/><text fill="#000000" font-family="sans-serif" font-size="11" lengthAdjust="spacing" textLength="32" x="156.5" y="53.2104">ready</text><rect fill="none" height="6" style="stroke:#C82930;stroke-width:1.0;" width="6" x="144.5" y="59.8047"/><text fill="#000000" font-family="sans-serif" font-size="11" lengthAdjust="spacing" textLength="32" x="156.5" y="66.0151">procs</text><line style="stroke:#A80036;stroke-width:1.5;" x1="137.5" x2="209.5" y1="72.6094" y2="72.6094"/><!--MD5=[f8e092794d52bf9a252466252ae7bd1c]
class System--><rect codeLine="22" fill="#FEFECE" filter="url(#f1if3bckk9q1su)" height="60.8047" id="System" style="stroke:#A80036;stroke-width:1.5;" width="77" x="7" y="13"/><ellipse cx="22" cy="29" fill="#ADD1B2" rx="11" ry="11" style="stroke:#A80036;stroke-width:1.0;"/><path d="M17,30.1563 C17,32.6563 19.1406,34.4688 22.0625,34.4688 C23.2969,34.4688 24.4688,34.1719 25.2188,33.6563 C25.8281,33.2344 26.1563,32.8125 26.1563,32.4063 C26.1563,31.9375 25.7344,31.5313 25.2344,31.5313 C25,31.5313 24.7813,31.6094 24.5781,31.8125 C24.1406,32.25 24.1406,32.25 23.9688,32.3438 C23.5156,32.5781 22.875,32.7188 22.1094,32.7188 C20.1094,32.7188 18.8281,31.7031 18.8281,30.125 L18.8281,29.0781 C18.8281,27.375 20.0469,26.1719 21.75,26.1719 C22.3281,26.1719 22.9063,26.3125 23.375,26.5625 C23.8438,26.8281 24.0156,27.0156 24.0781,27.375 C24.2031,28.0469 24.4531,28.2969 24.9844,28.2969 C25.2656,28.2969 25.5469,28.1563 25.7344,27.9375 C25.8594,27.7656 25.9063,27.5938 25.9063,27.1563 L25.9063,25.7969 C25.9063,25.375 25.8906,25.2344 25.7656,25.0625 C25.5938,24.8125 25.3125,24.6563 24.9844,24.6563 C24.6719,24.6563 24.4688,24.7656 24.25,25.0313 C23.0781,24.5313 22.6406,24.4219 21.6875,24.4219 C19.0156,24.4219 17,26.4375 17,29.0625 L17,30.1563 Z " fill="#000000"/><text fill="#000000" font-family="sans-serif" font-size="12" lengthAdjust="spacing" textLength="45" x="36" y="33.1543">System</text><line style="stroke:#A80036;stroke-width:1.5;" x1="8" x2="83" y1="45" y2="45"/><rect fill="none" height="6" style="stroke:#C82930;stroke-width:1.0;" width="6" x="15" y="53"/><text fill="#000000" font-family="sans-serif" font-size="11" lengthAdjust="spacing" textLength="32" x="27" y="59.2104">ready</text><line style="stroke:#A80036;stroke-width:1.5;" x1="8" x2="83" y1="65.8047" y2="65.8047"/><!--MD5=[20d3339409b4523bb497f78ccb630679]
class ready--><rect codeLine="26" fill="#FEFECE" filter="url(#f1if3bckk9q1su)" height="60.8047" id="ready" style="stroke:#A80036;stroke-width:1.5;" width="85" x="8.75" y="155"/><ellipse cx="31.85" cy="171" fill="#ADD1B2" rx="11" ry="11" style="stroke:#A80036;stroke-width:1.0;"/><path d="M26.85,172.1563 C26.85,174.6563 28.9906,176.4688 31.9125,176.4688 C33.1469,176.4688 34.3188,176.1719 35.0688,175.6563 C35.6781,175.2344 36.0063,174.8125 36.0063,174.4063 C36.0063,173.9375 35.5844,173.5313 35.0844,173.5313 C34.85,173.5313 34.6313,173.6094 34.4281,173.8125 C33.9906,174.25 33.9906,174.25 33.8188,174.3438 C33.3656,174.5781 32.725,174.7188 31.9594,174.7188 C29.9594,174.7188 28.6781,173.7031 28.6781,172.125 L28.6781,171.0781 C28.6781,169.375 29.8969,168.1719 31.6,168.1719 C32.1781,168.1719 32.7563,168.3125 33.225,168.5625 C33.6938,168.8281 33.8656,169.0156 33.9281,169.375 C34.0531,170.0469 34.3031,170.2969 34.8344,170.2969 C35.1156,170.2969 35.3969,170.1563 35.5844,169.9375 C35.7094,169.7656 35.7563,169.5938 35.7563,169.1563 L35.7563,167.7969 C35.7563,167.375 35.7406,167.2344 35.6156,167.0625 C35.4438,166.8125 35.1625,166.6563 34.8344,166.6563 C34.5219,166.6563 34.3188,166.7656 34.1,167.0313 C32.9281,166.5313 32.4906,166.4219 31.5375,166.4219 C28.8656,166.4219 26.85,168.4375 26.85,171.0625 L26.85,172.1563 Z " fill="#000000"/><text fill="#000000" font-family="sans-serif" font-size="12" lengthAdjust="spacing" textLength="35" x="47.65" y="175.1543">ready</text><line style="stroke:#A80036;stroke-width:1.5;" x1="9.75" x2="92.75" y1="187" y2="187"/><line style="stroke:#A80036;stroke-width:1.5;" x1="9.75" x2="92.75" y1="195" y2="195"/><rect fill="#F24D5C" height="6" style="stroke:#C82930;stroke-width:1.0;" width="6" x="16.75" y="203"/><text fill="#000000" font-family="sans-serif" font-size="11" lengthAdjust="spacing" textLength="59" x="28.75" y="209.2104">schedule()</text><!--MD5=[25c445faf2ccae534406de8b1ec9aa5a]
link proc to Mailbox--><path codeLine="30" d="M140,192.5 C121.594,192.5 117.737,241.768 117.583,280.9965 " fill="none" id="proc-to-Mailbox" style="stroke:#A80036;stroke-width:1.0;"/><polygon fill="#A80036" points="117.584,286.2142,121.584,277.2142,117.584,281.2142,113.584,277.2142,117.584,286.2142" style="stroke:#A80036;stroke-width:1.0;"/><!--MD5=[6fb44935058407be793eb73fdb0c7731]
link proc to Actor--><path codeLine="31" d="M211,204.5 C247.364,204.5 245.764,256.84 240.18,293.5103 " fill="none" id="proc-to-Actor" style="stroke:#A80036;stroke-width:1.0;"/><polygon fill="#A80036" points="239.331,298.7989,244.7069,290.5466,240.1235,293.8621,236.808,289.2787,239.331,298.7989" style="stroke:#A80036;stroke-width:1.0;"/><!--MD5=[b1dbc250f297ad98c73e39e611b19721]
link Router to ready--><path codeLine="32" d="M136,50.5 C130.11,50.5 94.1443,110.321 70.9229,150.024 " fill="none" id="Router-to-ready" style="stroke:#A80036;stroke-width:1.0;"/><polygon fill="#A80036" points="68.1571,154.761,76.1497,149.0062,70.6785,150.4433,69.2414,144.972,68.1571,154.761" style="stroke:#A80036;stroke-width:1.0;"/><!--MD5=[15cd50df3b57d3ae28dd4ecef15f54f9]
link Router to proc--><path codeLine="33" d="M213,62.5 C246.651,62.5 227.081,105.334 205.547,140.241 " fill="none" id="Router-to-proc" style="stroke:#A80036;stroke-width:1.0;"/><polygon fill="#A80036" points="202.639,144.89,210.8023,139.38,205.29,140.6507,204.0194,135.1384,202.639,144.89" style="stroke:#A80036;stroke-width:1.0;"/><!--MD5=[92e94300c21c07b7331ac1f8845aba31]
link System to ready--><path codeLine="34" d="M86,56.5 C124.963,56.5 97.1688,112.366 73.8176,150.282 " fill="none" id="System-to-ready" style="stroke:#A80036;stroke-width:1.0;"/><polygon fill="#A80036" points="70.9966,154.812,79.1494,149.2864,73.6395,150.5676,72.3584,145.0577,70.9966,154.812" style="stroke:#A80036;stroke-width:1.0;"/><!--MD5=[7c286eddd98bdad3cf5e94b5a18355ba]
@startuml Actor System

interface Mailbox {
+ Send()
+ SendB()
- tryReceive()
}

interface Actor {
+ Poll()
}

class proc {
- Mailbox
- Actor
}

class Router {
- ready
- procs
}

class System {
- ready
}

class ready {
- schedule()
}

proc::Mailbox - -> Mailbox
proc::Actor - -> Actor
Router::ready - -> ready
Router::procs - -> proc
System::ready - -> ready

@enduml

PlantUML version 1.2021.7(Sun May 23 20:40:07 CST 2021)
(GPL source distribution)
Java Runtime: OpenJDK Runtime Environment
JVM: OpenJDK 64-Bit Server VM
Default Encoding: UTF-8
Language: en
Country: US
--></g></svg>